<svg height="511pt" viewBox="-86 1 511 511.99988" width="511pt" xmlns="http://www.w3.org/2000/svg"><path d="m134.304688 357.921875v-153.121094c.011718-1.320312-.277344-2.628906-.855469-3.816406l-16.214844-32.332031v-160.117188c.003906-4.714844-3.816406-8.535156-8.53125-8.535156h-76.800781c-4.710938 0-8.53125 3.820312-8.53125 8.535156v160.117188l-16.171875 32.332031c-.589844 1.1875-.898438 2.492187-.894531 3.816406v153.121094l-5.121094 46.277344c-2.371094 21.253906 1.460937 42.742187 11.035156 61.867187l11.152344 22.347656c7.183594 14.492188 21.984375 23.640626 38.160156 23.585938h17.542969c16.175781.054688 30.976562-9.09375 38.164062-23.585938l11.175781-22.347656c9.574219-19.125 13.40625-40.613281 11.035157-61.867187zm-26.984376-170.929687 9.917969 19.820312v7.449219l-15.472656-19.703125zm-16.035156 21.859374 25.953125 33.035157v30.71875l-36.355469-49.5625zm-10.128906-40.515624 19.015625-24.191407v23.730469l-9.386719 12.800781zm-40.71875-151.269532h59.730469v34.132813h-59.730469zm0 51.199219h59.730469v17.066406h-59.730469zm0 34.132813h59.730469v14.117187l-29.863281 38.015625-29.867188-38.015625zm39.902344 92.519531-10.035156 13.652343-10.035157-13.652343 10.035157-12.800781zm-39.902344-50.773438 19.011719 24.191407-9.625 12.296874-9.386719-12.800781zm-17.066406 62.667969 9.914062-19.820312 5.554688 7.578124-15.46875 19.691407zm0 35.074219 25.949218-33.035157 10.402344 14.183594-36.351562 49.5625zm0 59.578125 46.933594-64 46.933593 64v51.660156l-42.941406 21.488281-50.925781-21.835937zm89.777344 156.972656-11.179688 22.347656c-4.3125 8.691406-13.191406 14.179688-22.894531 14.148438h-17.542969c-9.703125.03125-18.582031-5.457032-22.894531-14.148438l-11.179688-22.347656c-8.101562-16.183594-11.34375-34.367188-9.335937-52.351562l3.925781-35.3125 49.160156 21.070312c2.304688.988281 4.929688.914062 7.175781-.207031l40.261719-20.128907 3.839844 34.578126c2.007813 17.984374-1.234375 36.167968-9.335937 52.351562zm0 0"/><path d="m262.304688 158.601562v-150.066406c0-4.714844-3.820313-8.535156-8.535157-8.535156h-76.800781c-4.710938 0-8.53125 3.820312-8.53125 8.535156v153.09375l-8.535156 145.066406v.90625l7.109375 163.582032c.992187 22.839844 19.808593 40.835937 42.667969 40.816406h2.449218c18.359375 0 34.664063-11.75 40.472656-29.167969l14.769532-44.304687c2.304687-6.921875 3.472656-14.171875 3.464844-21.46875v-22.742188c0-21.316406 7.257812-41.996094 20.574218-58.640625l38.304688-47.921875c6.0625-7.554687 9.375-16.949218 9.386718-26.632812v-8.023438c.003907-11.320312-4.492187-22.175781-12.5-30.179687zm-76.800782-141.535156h59.734375v34.132813h-59.734375zm0 51.199219h59.734375v17.066406h-59.734375zm0 34.132813h59.734375v3.96875l-59.734375 39.824218zm0 64.300781 59.734375-39.824219v31.085938l-59.734375 46.457031zm-3.925781 62.242187c.203125-.136718.433594-.1875.632813-.34375l70.824218-55.105468 23.9375 23.890624-52.738281 81.5625c-.167969.273438-.324219.539063-.46875.855469-5.738281 11.585938-17.566406 18.902344-30.496094 18.867188h-15.777343zm140.457031 32.179688c-.003906 5.808594-1.980468 11.445312-5.605468 15.992187l-38.347657 47.929688c-15.703125 19.679687-24.273437 44.097656-24.3125 69.273437v22.699219c.003907 5.46875-.878906 10.898437-2.609375 16.085937l-14.773437 44.320313c-3.480469 10.457031-13.265625 17.511719-24.285157 17.511719h-2.449218c-13.722656.039062-25.027344-10.769532-25.601563-24.484375l-6.695312-154.714844h15.914062c19.230469.066406 36.859375-10.710937 45.566407-27.863281l50.5-78.105469 25.207031 25.199219c4.816406 4.792968 7.511719 11.3125 7.492187 18.109375zm0 0"/></svg>