<?xml version="1.0" encoding="iso-8859-1"?>
<!-- Generator: Adobe Illustrator 21.0.0, SVG Export Plug-In . SVG Version: 6.00 Build 0)  -->
<svg xmlns="http://www.w3.org/2000/svg" xmlns:xlink="http://www.w3.org/1999/xlink" version="1.1" id="Capa_1" x="0px" y="0px" viewBox="0 0 512 512" style="enable-background:new 0 0 512 512;" xml:space="preserve" width="512" height="512">
<rect x="10" y="66.472" style="fill-rule:evenodd;clip-rule:evenodd;fill:#9DC8F5;" width="492" height="379.057"/>
<path style="fill-rule:evenodd;clip-rule:evenodd;fill:#DB5C65;" d="M502,98.549c-35.66,34.482-132.324,59.206-246,59.206  c-113.675,0-210.339-24.724-246-59.206V66.472h492V98.549z"/>
<path style="fill-rule:evenodd;clip-rule:evenodd;fill:#FA969D;" d="M38.622,250.585c40.424-31.988,60.882-72.921,71.172-108.064  C64.027,131.966,28.661,116.593,10,98.549v346.979h75.811C81.169,286.17,38.622,250.585,38.622,250.585z"/>
<path style="fill-rule:evenodd;clip-rule:evenodd;fill:#FA969D;" d="M502,445.528V98.549  c-18.661,18.044-54.027,33.417-99.794,43.972c10.29,35.144,30.748,76.076,71.172,108.064c0,0-42.547,35.585-47.189,194.943H502z"/>
<polygon style="fill-rule:evenodd;clip-rule:evenodd;fill:#F2CF55;" points="256,220.048 282.235,267.529 335.5,277.808   298.448,317.432 305.134,371.266 256,348.272 206.866,371.266 213.552,317.432 176.5,277.808 229.765,267.529 "/>
<g>
	<path style="fill-rule:evenodd;clip-rule:evenodd;" d="M502,56.472H10c-5.522,0-10,4.478-10,10v379.057c0,5.523,4.478,10,10,10h492   c5.522,0,10-4.477,10-10V66.472C512,60.949,507.522,56.472,502,56.472z M492,76.472v17.665   c-31.875,27.465-108.089,47.965-196.536,52.592c-5.516,0.289-9.752,4.993-9.464,10.509c0.279,5.337,4.694,9.477,9.978,9.477   c0.176,0,0.354-0.005,0.531-0.014c35.623-1.863,69.099-6.171,98.885-12.473c13.023,39.217,34.447,71.978,63.837,97.602   c-4.641,6.454-10.812,16.88-17.025,32.84c-14.558,37.397-23.181,88.12-25.673,150.858H95.468   C92.976,372.79,84.353,322.067,69.795,284.67c-6.213-15.96-12.385-26.386-17.025-32.84c29.39-25.624,50.813-58.385,63.837-97.602   c29.786,6.302,63.262,10.609,98.885,12.473c0.178,0.009,0.355,0.014,0.531,0.014c5.282,0,9.698-4.141,9.978-9.477   c0.288-5.516-3.948-10.22-9.464-10.509C128.089,142.102,51.875,121.602,20,94.137V76.472H492z M20,118.897   c19.093,12.23,45.511,22.696,77.036,30.769c-13.002,38.122-34.701,69.402-64.619,93.077c-2.407,1.905-3.941,4.701-3.93,7.771   c0.012,3.041,1.273,5.802,3.649,7.688c0.856,0.814,10.248,10.169,20.063,36.457c9.084,24.333,20.269,68.259,23.248,140.87H20   V118.897z M436.553,435.528c2.98-72.611,14.164-116.537,23.248-140.87c9.815-26.288,19.207-35.643,20.063-36.457   c2.377-1.886,3.638-4.647,3.649-7.688c0.012-3.069-1.522-5.865-3.93-7.771c-29.918-23.675-51.617-54.955-64.619-93.077   c31.525-8.072,57.943-18.538,77.036-30.769v316.631H436.553z"/>
	<path style="fill-rule:evenodd;clip-rule:evenodd;" d="M256,210.048c-3.64,0-6.992,1.977-8.753,5.164l-23.972,43.386l-48.67,9.392   c-3.574,0.689-6.491,3.267-7.616,6.729c-1.125,3.462-0.279,7.261,2.207,9.92l33.855,36.206l-6.109,49.189   c-0.448,3.612,1.102,7.183,4.046,9.322c2.945,2.14,6.819,2.51,10.116,0.968L256,359.314l44.895,21.01   c1.35,0.632,2.797,0.942,4.237,0.942c2.077,0,4.14-0.646,5.879-1.91c2.944-2.14,4.494-5.71,4.046-9.322l-6.109-49.189   l33.855-36.206c2.486-2.659,3.332-6.458,2.207-9.92c-1.125-3.462-4.042-6.039-7.616-6.729l-48.67-9.392l-23.972-43.386   C262.992,212.025,259.64,210.048,256,210.048z M280.341,277.348l35.494,6.85l-24.69,26.404c-2.025,2.166-2.985,5.119-2.62,8.063   l4.455,35.873l-32.741-15.322c-1.343-0.628-2.79-0.942-4.238-0.942c-1.448,0-2.896,0.314-4.238,0.942l-32.741,15.322l4.455-35.873   c0.365-2.943-0.595-5.896-2.62-8.063l-24.69-26.404l35.494-6.85c2.912-0.562,5.424-2.387,6.858-4.982L256,240.725l17.482,31.641   C274.917,274.961,277.429,276.786,280.341,277.348z"/>
	<path style="fill-rule:evenodd;clip-rule:evenodd;" d="M256,167.755c5.508,0,10-4.492,10-10s-4.492-10.001-10-10.001   c-5.508,0-10,4.493-10,10.001S250.492,167.755,256,167.755z"/>
</g>















</svg>
