<svg id="Layer_5" enable-background="new 0 0 64 64" height="512" viewBox="0 0 64 64" width="512" xmlns="http://www.w3.org/2000/svg"><g><path d="m61 41c0-1.654-1.346-3-3-3h-2.304c1.748-2.904 4.001-5.282 4.028-5.31l1.456-1.526-2.103-.162c-6.254-.479-10.119.822-12.486 2.404-.518-.237-1.137-.49-1.851-.715 1.344-2.991 3.011-5.031 3.031-5.054l.93-1.125-1.384-.461c-5.768-1.923-10.422-.887-14.01 1.194-2.375-4.418-7.05-9.627-16.132-11.23l-1.957-.345.889 1.777c.022.044.994 2.01 2.154 5.116-2.604-1.034-5.371-1.563-8.261-1.563l-1.863.001 1.03 1.553c.016.024.719 1.099 1.595 2.985-2.28-.356-4.877-.539-7.762-.539h-1.868l1.036 1.555c.035.052 3.146 4.747 4.474 8.447l-.642-.002c-1.654 0-3 1.346-3 3v5h-2v2h62v-2h-2zm-4.118-8.097c-1.02 1.238-2.402 3.079-3.485 5.097h-.334l-7.452-.931c1.135-1.616 4.085-4.251 11.271-4.166zm-13.554 4.104h-.751c-.624-1.061-1.301-2.151-1.829-2.981 1.56.014 2.991.4 4.107.822-.798.832-1.266 1.617-1.527 2.159zm2.017-9.453c-.707 1.024-1.717 2.652-2.582 4.662-1.211-.206-2.544-.272-3.927-.042l-1.516.252.845 1.284c.013.02 1.04 1.583 2.082 3.296l-13.616-.005c1.97-3.517 8.022-12.174 18.714-9.447zm-13.72.793c-4.074 2.988-6.463 7.129-7.247 8.654h-.479c-.886-8.028-3.713-15.308-5.153-18.602 7.148 1.83 10.916 6.223 12.879 9.948zm-12.443-3.164c1.081 3.265 2.152 7.285 2.669 11.499l-6.104-1.526c-.885-5.616-2.801-9.895-3.967-12.083 2.608.219 5.086.936 7.402 2.11zm-14.348 1.843c2.583.075 4.87.321 6.86.716.767 1.978 1.529 4.446 2.013 7.283l-4.96-.016c-.861-2.753-2.738-6.063-3.913-7.983zm.166 10.974c0-.552.448-1 1-1h8.877l7.881 1.97 22.18.03 7.938.992 5.124.008c.552 0 1 .448 1 1v2h-18v-2h-2v2h-2v-2h-2v2h-2v-2h-2v2h-2v-2h-2v2h-2v-2h-2v2h-18z"/><path d="m7 39h2v2h-2z"/><path d="m11 39h2v2h-2z"/><path d="m15 39h2v2h-2z"/><path d="m47.499 55c-2.849 0-4.134.994-5.916 2.373-2.088 1.616-4.686 3.627-9.586 3.627s-7.498-2.012-9.586-3.628c-1.778-1.377-3.063-2.372-5.913-2.372-2.849 0-4.134.995-5.913 2.373-2.088 1.616-4.686 3.627-9.585 3.627v2c5.583 0 8.729-2.435 10.811-4.046 1.679-1.301 2.522-1.954 4.687-1.954 2.166 0 3.009.652 4.689 1.954 2.082 1.611 5.225 4.046 10.81 4.046 5.584 0 8.729-2.435 10.813-4.048 1.68-1.3 2.523-1.952 4.688-1.952 2.166 0 3.009.652 4.69 1.955 2.083 1.61 5.228 4.045 10.812 4.045v-2c-4.9 0-7.498-2.011-9.588-3.628-1.778-1.377-3.063-2.372-5.913-2.372z"/><path d="m47.499 47c-5.022 0-8.092 1.996-9.89 3.342-1.429-.768-3.18-1.342-5.612-1.342-2.431 0-4.181.574-5.609 1.342-1.799-1.345-4.868-3.342-9.89-3.342-5.021 0-8.09 1.996-9.889 3.342-1.428-.769-3.178-1.342-5.609-1.342v2c3.534 0 5.285 1.355 7.139 2.791.09.07.184.137.275.206-.092.071-.186.142-.277.212-.46.356-.914.707-1.39 1.034-1.693-1.307-2.989-2.243-5.747-2.243v2c1.759 0 2.651.438 3.82 1.295-1.034.426-2.244.705-3.82.705v2c4.217 0 6.418-1.705 8.361-3.209 1.854-1.436 3.605-2.791 7.137-2.791 3.533 0 5.284 1.355 7.138 2.791 1.943 1.504 4.145 3.209 8.361 3.209 4.218 0 6.42-1.705 8.363-3.209 1.854-1.436 3.606-2.791 7.139-2.791s5.284 1.355 7.138 2.791c1.943 1.504 4.145 3.209 8.363 3.209v-2c-1.576 0-2.787-.279-3.821-.705 1.17-.857 2.062-1.295 3.821-1.295v-2c-2.758 0-4.054.935-5.748 2.244-.477-.327-.931-.678-1.391-1.035-.09-.07-.184-.141-.276-.211.091-.07.185-.137.276-.207 1.854-1.436 3.605-2.791 7.139-2.791v-2c-2.432 0-4.183.574-5.611 1.342-1.799-1.346-4.869-3.342-9.89-3.342zm-37.371 5.784c-.255-.191-.513-.38-.764-.574-.3-.232-.611-.468-.93-.703 1.918-1.322 4.341-2.507 8.064-2.507 3.724 0 6.148 1.185 8.066 2.507-.318.234-.629.47-.929.702-.251.195-.511.383-.767.574-1.559-.983-3.49-1.783-6.37-1.783s-4.811.8-6.37 1.784zm18.05 3.511c1.169-.857 2.061-1.295 3.819-1.295s2.65.437 3.82 1.295c-1.034.426-2.244.705-3.82.705-1.575 0-2.785-.279-3.819-.705zm9.566-1.051c-1.692-1.308-2.988-2.244-5.747-2.244-2.76 0-4.055.936-5.746 2.244-.476-.327-.93-.678-1.391-1.035-.09-.07-.185-.141-.277-.212.091-.07.186-.137.277-.207 1.854-1.435 3.604-2.79 7.137-2.79 3.534 0 5.285 1.355 7.14 2.791.09.07.185.136.276.206-.092.071-.186.142-.277.212-.461.357-.915.708-1.392 1.035zm9.755-4.244c-2.881 0-4.812.8-6.372 1.783-.256-.191-.515-.379-.766-.573-.3-.232-.61-.468-.929-.702 1.919-1.323 4.344-2.508 8.067-2.508s6.147 1.185 8.066 2.508c-.318.235-.629.47-.928.702-.252.194-.51.384-.765.575-1.561-.984-3.492-1.785-6.373-1.785z"/><path d="m17 15h12.969c1.516 3.05 4.584 5 8.031 5 .626 0 1.242-.088 1.85-.216.899 1.335 2.423 2.216 4.15 2.216h14c2.757 0 5-2.243 5-5s-2.243-5-5-5c-.222 0-.44.015-.654.042-1.134-2.425-3.607-4.042-6.346-4.042-1.546 0-2.982.51-4.154 1.376-.768-4.189-4.438-7.376-8.846-7.376-2.588 0-4.995 1.104-6.707 3.03-.099-.006-.193-.03-.293-.03-.222 0-.44.015-.654.042-1.134-2.425-3.607-4.042-6.346-4.042-2.77 0-5.217 1.593-6.35 4.048-3.033-.445-5.65 1.981-5.65 4.952 0 2.757 2.243 5 5 5zm34-5c1.888 0 3.598 1.074 4.443 2.705-1.462.873-2.443 2.472-2.443 4.295h2c0-1.654 1.346-3 3-3s3 1.346 3 3-1.346 3-3 3h-14c-1.654 0-3-1.346-3-3s1.346-3 3-3c.294 0 .604.056.948.172l.972.328.303-.979c.651-2.106 2.571-3.521 4.777-3.521zm-13-6c3.859 0 7 3.14 7 7 0 .154-.013.305-.023.456-.114.194-.231.385-.327.592-3.039-.442-5.65 1.98-5.65 4.952 0 .312.037.615.092.911-.36.057-.725.089-1.092.089-2.392 0-4.55-1.209-5.827-3.154 2.19-.531 3.827-2.495 3.827-4.846 0-1.854-1.026-3.457-2.529-4.32 1.255-1.076 2.843-1.68 4.529-1.68zm-21 3c.294 0 .604.056.948.172l.972.328.303-.979c.651-2.106 2.571-3.521 4.777-3.521 1.888 0 3.598 1.074 4.443 2.705-1.462.873-2.443 2.472-2.443 4.295h2c0-1.654 1.346-3 3-3s3 1.346 3 3-1.346 3-3 3h-14c-1.654 0-3-1.346-3-3s1.346-3 3-3z"/></g></svg>