<?xml version="1.0" encoding="iso-8859-1"?>
<!-- Generator: Adobe Illustrator 19.0.0, SVG Export Plug-In . SVG Version: 6.00 Build 0)  -->
<svg version="1.1" id="Capa_1" xmlns="http://www.w3.org/2000/svg" xmlns:xlink="http://www.w3.org/1999/xlink" x="0px" y="0px"
	 viewBox="0 0 512.001 512.001" style="enable-background:new 0 0 512.001 512.001;" xml:space="preserve">
<path style="fill:#CB75F6;" d="M496.056,182.014C496.056,81.206,443.252,0,376.047,0S256.038,81.206,256.038,182.014
	c0,33.302,6,66.005,17.402,94.207c8.4,20.7,12.6,39.601,12.6,57.904v62.105c0,24.901,10.801,48.304,29.401,64.804
	c15.902,13.501,36.003,21.002,56.704,21.002c1.199,0,2.401,0,3.9-0.3c2.701,0,5.4-0.3,8.102-0.601
	c45.304-6.299,78.006-50.102,72.605-98.105l-0.901-9.601c-2.999-27.003,2.701-55.205,16.801-83.707
	C487.954,258.519,496.056,221.316,496.056,182.014z"/>
<path style="fill:#B760EA;" d="M472.653,289.721c-14.1,28.502-19.8,56.704-16.801,83.707l0.901,9.601
	c5.4,48.003-27.301,91.807-72.604,98.106c-2.701,0.3-5.4,0.601-8.102,0.601V0c67.205,0,120.009,81.206,120.009,182.014
	C496.056,221.316,487.954,258.519,472.653,289.721z"/>
<path style="fill:#582B1F;" d="M196.635,352.426l-40.204,40.202c-2.999,3.001-6.599,4.501-10.5,4.501s-7.801-1.5-10.502-4.501
	c-5.999-5.7-5.999-15.299,0-21.001l40.204-40.204c5.7-6,15.301-6,21.002,0C202.633,337.124,202.633,346.726,196.635,352.426z"/>
<path style="fill:#3C1B13;" d="M196.635,352.426l-40.204,40.202c-2.999,3.001-6.599,4.501-10.5,4.501s-7.801-1.5-10.502-4.501
	l61.206-61.204C202.633,337.124,202.633,346.726,196.635,352.426z"/>
<path style="fill:#804231;" d="M366.446,161.612c-52.804-52.804-138.009-52.804-190.814,0c-52.804,52.802-52.804,138.009,0,190.814
	s138.009,52.804,190.814,0S419.25,214.415,366.446,161.612z"/>
<path style="fill:#663325;" d="M366.446,352.426c-52.804,52.804-138.009,52.804-190.814,0l190.814-190.814
	C419.25,214.415,419.25,299.621,366.446,352.426z"/>
<path style="fill:#FFD400;" d="M345.144,182.913c-18.899-19.2-45.301-30.901-74.105-30.901
	c-57.904,0-105.008,47.104-105.008,105.008c0,28.801,11.701,55.203,30.903,74.105c18.899,19.202,45.301,30.903,74.104,30.903
	c57.904,0,105.008-47.104,105.008-105.008C376.047,228.216,364.346,201.814,345.144,182.913z"/>
<path style="fill:#FDBF00;" d="M376.047,257.019c0,57.904-47.104,105.008-105.008,105.008c-28.803,0-55.205-11.701-74.104-30.903
	l148.209-148.211C364.346,201.814,376.047,228.216,376.047,257.019z"/>
<path style="fill:#804231;" d="M177.732,392.928l-21.302-21.301l-21.303-21.302c-5.4-5.7-15.299-5.7-21.001,0l-84.906,84.906
	c-17.702,17.4-17.702,46.202,0,63.605c17.402,17.7,46.202,17.402,63.605,0l84.907-84.907c2.699-2.699,4.499-6.599,4.499-10.5
	C182.233,399.53,180.432,395.629,177.732,392.928z"/>
<path style="fill:#663325;" d="M177.732,392.928c2.699,2.701,4.499,6.602,4.499,10.502c0,3.9-1.8,7.801-4.499,10.5l-84.906,84.907
	c-17.402,17.402-46.202,17.7-63.605,0l127.209-127.209L177.732,392.928z"/>
<g>
</g>
<g>
</g>
<g>
</g>
<g>
</g>
<g>
</g>
<g>
</g>
<g>
</g>
<g>
</g>
<g>
</g>
<g>
</g>
<g>
</g>
<g>
</g>
<g>
</g>
<g>
</g>
<g>
</g>
</svg>
