<?xml version="1.0"?>
<svg xmlns="http://www.w3.org/2000/svg" id="Filled_Outline" data-name="Filled Outline" viewBox="0 0 64 64" width="512" height="512"><path d="M50,3V6.929A17.073,17.073,0,0,0,55,19h0a10.242,10.242,0,0,0-3,7.243V29h9V3Z" style="fill:#ffc1af"/><rect x="3" y="29" width="58" height="4" style="fill:#a65a14"/><path d="M14,3V6l2.572,1.029A41.536,41.536,0,0,0,32,10h0A41.536,41.536,0,0,0,47.428,7.029L50,6V3Z" style="fill:#ffc1af"/><circle cx="26" cy="21" r="2" style="fill:#ffdaaa"/><path d="M23,29V26a3,3,0,0,1,3-3h0a3,3,0,0,1,3,3v3Z" style="fill:#f5cf68"/><circle cx="38" cy="21" r="2" style="fill:#ffdaaa"/><path d="M35,29V26a3,3,0,0,1,3-3h0a3,3,0,0,1,3,3v3Z" style="fill:#02998a"/><path d="M14,3V6.929A17.073,17.073,0,0,1,9,19H9a10.242,10.242,0,0,1,3,7.243V29H3V3Z" style="fill:#ffc1af"/><path d="M10,47V39a2,2,0,0,1,2-2h4a2,2,0,0,1,2,2v8Z" style="fill:#ff6536"/><path d="M22,47V39a2,2,0,0,1,2-2h4a2,2,0,0,1,2,2v8Z" style="fill:#ff6536"/><rect x="18" y="43" width="4" height="4" style="fill:#ffc1af"/><path d="M34,47V39a2,2,0,0,1,2-2h4a2,2,0,0,1,2,2v8Z" style="fill:#ff6536"/><rect x="30" y="43" width="4" height="4" style="fill:#ffc1af"/><path d="M46,47V39a2,2,0,0,1,2-2h4a2,2,0,0,1,2,2v8Z" style="fill:#ff6536"/><rect x="42" y="43" width="4" height="4" style="fill:#ffc1af"/><rect x="54" y="43" width="4" height="4" style="fill:#ffc1af"/><rect x="6" y="43" width="4" height="4" style="fill:#ffc1af"/><path d="M2,37H4a2,2,0,0,1,2,2v8H2Z" style="fill:#ff6536"/><path d="M62,37H60a2,2,0,0,0-2,2v8h4Z" style="fill:#ff6536"/><path d="M10,61V53a2,2,0,0,1,2-2h4a2,2,0,0,1,2,2v8Z" style="fill:#ff421d"/><path d="M22,61V53a2,2,0,0,1,2-2h4a2,2,0,0,1,2,2v8Z" style="fill:#ff421d"/><rect x="18" y="57" width="4" height="4" style="fill:#ffc1af"/><path d="M34,61V53a2,2,0,0,1,2-2h4a2,2,0,0,1,2,2v8Z" style="fill:#ff421d"/><rect x="30" y="57" width="4" height="4" style="fill:#ffc1af"/><path d="M46,61V53a2,2,0,0,1,2-2h4a2,2,0,0,1,2,2v8Z" style="fill:#ff421d"/><rect x="42" y="57" width="4" height="4" style="fill:#ffc1af"/><rect x="54" y="57" width="4" height="4" style="fill:#ffc1af"/><rect x="6" y="57" width="4" height="4" style="fill:#ffc1af"/><path d="M2,51H4a2,2,0,0,1,2,2v8H2Z" style="fill:#ff421d"/><path d="M62,51H60a2,2,0,0,0-2,2v8h4Z" style="fill:#ff421d"/><path d="M61,2H3A1,1,0,0,0,2,3V33a1,1,0,0,0,1,1H61a1,1,0,0,0,1-1V3A1,1,0,0,0,61,2ZM42,28V26a3.984,3.984,0,0,0-1.619-3.195A2.972,2.972,0,0,0,41,21a3,3,0,0,0-6,0,2.972,2.972,0,0,0,.619,1.8A3.984,3.984,0,0,0,34,26v2H30V26a3.984,3.984,0,0,0-1.619-3.195A2.972,2.972,0,0,0,29,21a3,3,0,0,0-6,0,2.972,2.972,0,0,0,.619,1.8A3.984,3.984,0,0,0,22,26v2H13V26.243a11.154,11.154,0,0,0-2.633-7.231A17.918,17.918,0,0,0,14.976,7.467l1.225.49A42.349,42.349,0,0,0,32,11,42.367,42.367,0,0,0,47.8,7.958l1.225-.491a17.918,17.918,0,0,0,4.609,11.545A11.154,11.154,0,0,0,51,26.243V28Zm-5-7a1,1,0,1,1,1,1A1,1,0,0,1,37,21Zm-1,5a2,2,0,0,1,4,0v2H36ZM25,21a1,1,0,1,1,1,1A1,1,0,0,1,25,21Zm-1,5a2,2,0,0,1,4,0v2H24ZM4,20H8.559A9.172,9.172,0,0,1,11,26.243V28H4Zm49,6.243A9.172,9.172,0,0,1,55.441,20H60v8H53ZM60,18H55.441A15.953,15.953,0,0,1,51,6.929V4h9ZM49,5.323,47.056,6.1A40.357,40.357,0,0,1,32,9,40.357,40.357,0,0,1,16.944,6.1L15,5.323V4H49ZM13,4V6.929A15.953,15.953,0,0,1,8.559,18H4V4ZM60,32H4V30H60Z" style="fill:#231f20"/><path d="M57,39v3H55V39a3,3,0,0,0-3-3H48a3,3,0,0,0-3,3v3H43V39a3,3,0,0,0-3-3H36a3,3,0,0,0-3,3v3H31V39a3,3,0,0,0-3-3H24a3,3,0,0,0-3,3v3H19V39a3,3,0,0,0-3-3H12a3,3,0,0,0-3,3v3H7V39a3,3,0,0,0-3-3H2v2H4a1,1,0,0,1,1,1v7H2v2H62V46H59V39a1,1,0,0,1,1-1h2V36H60A3,3,0,0,0,57,39ZM7,44H9v2H7Zm4-5a1,1,0,0,1,1-1h4a1,1,0,0,1,1,1v7H11Zm8,5h2v2H19Zm4-5a1,1,0,0,1,1-1h4a1,1,0,0,1,1,1v7H23Zm8,5h2v2H31Zm4-5a1,1,0,0,1,1-1h4a1,1,0,0,1,1,1v7H35Zm8,5h2v2H43Zm4-5a1,1,0,0,1,1-1h4a1,1,0,0,1,1,1v7H47Zm8,5h2v2H55Z" style="fill:#231f20"/><path d="M57,53v3H55V53a3,3,0,0,0-3-3H48a3,3,0,0,0-3,3v3H43V53a3,3,0,0,0-3-3H36a3,3,0,0,0-3,3v3H31V53a3,3,0,0,0-3-3H24a3,3,0,0,0-3,3v3H19V53a3,3,0,0,0-3-3H12a3,3,0,0,0-3,3v3H7V53a3,3,0,0,0-3-3H2v2H4a1,1,0,0,1,1,1v7H2v2H62V60H59V53a1,1,0,0,1,1-1h2V50H60A3,3,0,0,0,57,53ZM7,58H9v2H7Zm4-5a1,1,0,0,1,1-1h4a1,1,0,0,1,1,1v7H11Zm8,5h2v2H19Zm4-5a1,1,0,0,1,1-1h4a1,1,0,0,1,1,1v7H23Zm8,5h2v2H31Zm4-5a1,1,0,0,1,1-1h4a1,1,0,0,1,1,1v7H35Zm8,5h2v2H43Zm4-5a1,1,0,0,1,1-1h4a1,1,0,0,1,1,1v7H47Zm8,5h2v2H55Z" style="fill:#231f20"/></svg>
