<?xml version="1.0"?>
<svg xmlns="http://www.w3.org/2000/svg" id="Flat" viewBox="0 0 64 64" width="512" height="512"><path d="M50,3V6.929A17.073,17.073,0,0,0,55,19h0a10.242,10.242,0,0,0-3,7.243V29h9V3Z" style="fill:#ffc1af"/><rect x="3" y="29" width="58" height="4" style="fill:#a65a14"/><path d="M14,3V6l2.572,1.029A41.536,41.536,0,0,0,32,10h0A41.536,41.536,0,0,0,47.428,7.029L50,6V3Z" style="fill:#ffc1af"/><circle cx="26" cy="21" r="2" style="fill:#ffdaaa"/><path d="M23,29V26a3,3,0,0,1,3-3h0a3,3,0,0,1,3,3v3Z" style="fill:#f5cf68"/><circle cx="38" cy="21" r="2" style="fill:#ffdaaa"/><path d="M35,29V26a3,3,0,0,1,3-3h0a3,3,0,0,1,3,3v3Z" style="fill:#02998a"/><path d="M14,3V6.929A17.073,17.073,0,0,1,9,19H9a10.242,10.242,0,0,1,3,7.243V29H3V3Z" style="fill:#ffc1af"/><path d="M10,47V39a2,2,0,0,1,2-2h4a2,2,0,0,1,2,2v8Z" style="fill:#ff6536"/><path d="M22,47V39a2,2,0,0,1,2-2h4a2,2,0,0,1,2,2v8Z" style="fill:#ff6536"/><rect x="18" y="43" width="4" height="4" style="fill:#ffc1af"/><path d="M34,47V39a2,2,0,0,1,2-2h4a2,2,0,0,1,2,2v8Z" style="fill:#ff6536"/><rect x="30" y="43" width="4" height="4" style="fill:#ffc1af"/><path d="M46,47V39a2,2,0,0,1,2-2h4a2,2,0,0,1,2,2v8Z" style="fill:#ff6536"/><rect x="42" y="43" width="4" height="4" style="fill:#ffc1af"/><rect x="54" y="43" width="4" height="4" style="fill:#ffc1af"/><rect x="6" y="43" width="4" height="4" style="fill:#ffc1af"/><path d="M2,37H4a2,2,0,0,1,2,2v8H2Z" style="fill:#ff6536"/><path d="M62,37H60a2,2,0,0,0-2,2v8h4Z" style="fill:#ff6536"/><path d="M10,61V53a2,2,0,0,1,2-2h4a2,2,0,0,1,2,2v8Z" style="fill:#ff421d"/><path d="M22,61V53a2,2,0,0,1,2-2h4a2,2,0,0,1,2,2v8Z" style="fill:#ff421d"/><rect x="18" y="57" width="4" height="4" style="fill:#ffc1af"/><path d="M34,61V53a2,2,0,0,1,2-2h4a2,2,0,0,1,2,2v8Z" style="fill:#ff421d"/><rect x="30" y="57" width="4" height="4" style="fill:#ffc1af"/><path d="M46,61V53a2,2,0,0,1,2-2h4a2,2,0,0,1,2,2v8Z" style="fill:#ff421d"/><rect x="42" y="57" width="4" height="4" style="fill:#ffc1af"/><rect x="54" y="57" width="4" height="4" style="fill:#ffc1af"/><rect x="6" y="57" width="4" height="4" style="fill:#ffc1af"/><path d="M2,51H4a2,2,0,0,1,2,2v8H2Z" style="fill:#ff421d"/><path d="M62,51H60a2,2,0,0,0-2,2v8h4Z" style="fill:#ff421d"/><rect x="3" y="18" width="6" height="2" style="fill:#ff6536"/><rect x="55" y="18" width="6" height="2" style="fill:#ff6536"/></svg>
