<svg height="496pt" viewBox="0 0 496 496" width="496pt" xmlns="http://www.w3.org/2000/svg"><path d="m40 496v-88h416v88" fill="#666"/><path d="m40 408h384v88h-384zm0 0" fill="#808080"/><path d="m8 360h480v48h-480zm0 0" fill="#999"/><path d="m8 360h448v48h-448zm0 0" fill="#b3b3b3"/><path d="m24 88h448v272h-448zm0 0" fill="#e6e6e6"/><g fill="#54bce8"><path d="m248 264v16c0 8.839844-7.160156 16-16 16s-16-7.160156-16-16v-16"/><path d="m280 264v12c0 11.046875 8.953125 20 20 20s20-8.953125 20-20v-188h-144v188c0 11.046875 8.953125 20 20 20s20-8.953125 20-20v-12"/><path d="m248 264v16c0 8.839844-7.160156 16-16 16s-16-7.160156-16-16v-16"/><path d="m280 264v16c0 8.839844-7.160156 16-16 16s-16-7.160156-16-16v-16"/><path d="m280 264v12c0 11.046875 8.953125 20 20 20s20-8.953125 20-20v-188h-144v188c0 11.046875 8.953125 20 20 20s20-8.953125 20-20v-12"/><path d="m280 264v16c0 8.839844-7.160156 16-16 16s-16-7.160156-16-16v-16"/></g><path d="m232 304c-13.230469 0-24-10.769531-24-24v-16h16v16c0 4.40625 3.585938 8 8 8s8-3.59375 8-8v-16h16v16c0 13.230469-10.769531 24-24 24zm0 0"/><path d="m248 248v16c0 8.839844-7.160156 16-16 16s-16-7.160156-16-16v-16" fill="#7fcdee"/><path d="m280 248v16c0 8.839844-7.160156 16-16 16s-16-7.160156-16-16v-16" fill="#7fcdee"/><path d="m280 250.464844v11.078125c0 10.191406 8.953125 18.457031 20 18.457031s20-8.265625 20-18.464844v-173.535156h-144v173.535156c0 10.199219 8.953125 18.464844 20 18.464844s20-8.265625 20-18.464844v-11.078125" fill="#7fcdee"/><path d="m264 304c-13.230469 0-24-10.769531-24-24v-16h16v16c0 4.40625 3.585938 8 8 8s8-3.59375 8-8v-16h16v16c0 13.230469-10.769531 24-24 24zm0 0"/><path d="m196 304c-15.441406 0-28-12.558594-28-28v-188h16v188c0 6.617188 5.382812 12 12 12s12-5.382812 12-12v-12h16v12c0 15.441406-12.558594 28-28 28zm0 0"/><path d="m300 304c-15.441406 0-28-12.558594-28-28v-12h16v12c0 6.617188 5.382812 12 12 12s12-5.382812 12-12v-188h16v188c0 15.441406-12.558594 28-28 28zm0 0"/><path d="m197.390625 88h-189.390625v-48h189.390625c8.984375-18.921875 28.273437-32 50.609375-32s41.625 13.078125 50.609375 32h189.390625v48h-189.390625c-8.984375 18.921875-28.273437 32-50.609375 32s-41.625-13.078125-50.609375-32zm0 0" fill="#b3b3b3"/><path d="m272 64c0 13.253906-10.746094 24-24 24s-24-10.746094-24-24 10.746094-24 24-24 24 10.746094 24 24zm0 0" fill="#911d22"/><path d="m256 64c0-12.441406-7.164062-22.527344-16-22.527344s-16 10.085938-16 22.527344 7.164062 22.527344 16 22.527344 16-10.085938 16-22.527344zm0 0" fill="#c1272d"/><path d="m88 360h-64v-144c35.34375 0 64 28.65625 64 64zm0 0" fill="#6d161a"/><path d="m408 360h64v-144c-35.34375 0-64 28.65625-64 64zm0 0" fill="#6d161a"/><path d="m24 216v-128h120v8c0 66.273438-53.726562 120-120 120zm0 0" fill="#911d22"/><path d="m24 184c48.601562 0 88-39.398438 88-88v-8h-88zm0 0" fill="#c1272d"/><path d="m472 216v-128h-120v8c0 66.273438 53.726562 120 120 120zm0 0" fill="#911d22"/><path d="m248 128c-22.855469 0-44.089844-12.40625-55.433594-32h-184.566406c-4.425781 0-8-3.585938-8-8v-48c0-4.414062 3.574219-8 8-8h184.566406c11.34375-19.59375 32.578125-32 55.433594-32s44.089844 12.40625 55.433594 32h184.566406c4.425781 0 8 3.585938 8 8v48c0 4.414062-3.574219 8-8 8h-184.566406c-11.34375 19.59375-32.578125 32-55.433594 32zm-232-48h181.390625c3.089844 0 5.898437 1.777344 7.226563 4.566406 7.910156 16.664063 24.941406 27.433594 43.382812 27.433594s35.472656-10.769531 43.382812-27.433594c1.328126-2.789062 4.136719-4.566406 7.226563-4.566406h181.390625v-32h-181.390625c-3.089844 0-5.898437-1.777344-7.226563-4.566406-7.910156-16.664063-24.941406-27.433594-43.382812-27.433594s-35.472656 10.769531-43.382812 27.433594c-1.328126 2.789062-4.136719 4.566406-7.226563 4.566406h-181.390625zm0 0"/><path d="m248 96c-17.648438 0-32-14.351562-32-32s14.351562-32 32-32 32 14.351562 32 32-14.351562 32-32 32zm0-48c-8.824219 0-16 7.175781-16 16s7.175781 16 16 16 16-7.175781 16-16-7.175781-16-16-16zm0 0"/><path d="m488 416h-480c-4.425781 0-8-3.585938-8-8v-48c0-4.414062 3.574219-8 8-8h480c4.425781 0 8 3.585938 8 8v48c0 4.414062-3.574219 8-8 8zm-472-16h464v-32h-464zm0 0"/><path d="m464 496h-16v-80h-400v80h-16v-88c0-4.414062 3.574219-8 8-8h416c4.425781 0 8 3.585938 8 8zm0 0"/><path d="m24 224c-4.425781 0-8-3.585938-8-8v-128c0-4.414062 3.574219-8 8-8h120c4.425781 0 8 3.585938 8 8v8c0 70.574219-57.425781 128-128 128zm8-128v111.71875c58.039062-4.117188 104-52.65625 104-111.71875zm0 0"/><path d="m88 368h-64c-4.425781 0-8-3.585938-8-8v-144c0-4.414062 3.574219-8 8-8 39.703125 0 72 32.304688 72 72v80c0 4.414062-3.574219 8-8 8zm-56-16h48v-72c0-28.167969-20.894531-51.535156-48-55.433594zm0 0"/><path d="m472 368h-64c-4.425781 0-8-3.585938-8-8v-80c0-39.695312 32.296875-72 72-72 4.425781 0 8 3.585938 8 8v144c0 4.414062-3.574219 8-8 8zm-56-16h48v-127.433594c-27.105469 3.898438-48 27.265625-48 55.433594zm0 0"/><path d="m24 192v-16c44.113281 0 80-35.886719 80-80v-8h16v8c0 52.9375-43.0625 96-96 96zm0 0"/><path d="m472 184c-48.601562 0-88-39.398438-88-88v-8h88zm0 0" fill="#c1272d"/><path d="m472 224c-70.574219 0-128-57.425781-128-128v-8c0-4.414062 3.574219-8 8-8h120c4.425781 0 8 3.585938 8 8v128c0 4.414062-3.574219 8-8 8zm-112-128c0 59.0625 45.960938 107.601562 104 111.71875v-111.71875zm0 0"/><path d="m472 192c-52.9375 0-96-43.0625-96-96v-8h16v8c0 44.113281 35.886719 80 80 80zm0 0"/></svg>