<svg height="496pt" viewBox="0 0 496 496" fill="white" width="496pt" xmlns="http://www.w3.org/2000/svg"><path d="m248 96c17.648438 0 32-14.351562 32-32s-14.351562-32-32-32-32 14.351562-32 32 14.351562 32 32 32zm0-48c8.824219 0 16 7.175781 16 16s-7.175781 16-16 16-16-7.175781-16-16 7.175781-16 16-16zm0 0"/><path d="m480 96h8c4.425781 0 8-3.585938 8-8v-48c0-4.414062-3.574219-8-8-8h-184.566406c-11.34375-19.59375-32.578125-32-55.433594-32s-44.089844 12.40625-55.433594 32h-184.566406c-4.425781 0-8 3.585938-8 8v48c0 4.414062 3.574219 8 8 8h8v256h-8c-4.425781 0-8 3.585938-8 8v48c0 4.414062 3.574219 8 8 8h24v80h16v-80h400v80h16v-80h24c4.425781 0 8-3.585938 8-8v-48c0-4.414062-3.574219-8-8-8h-8zm-80 256h-304v-72c0-26.089844-13.992188-48.910156-34.832031-61.542969 52.503906-15.96875 90.832031-64.808593 90.832031-122.457031h16v180c0 15.441406 12.558594 28 28 28 7.238281 0 13.792969-2.839844 18.769531-7.367188 4.367188 4.527344 10.460938 7.367188 17.230469 7.367188 6.167969 0 11.742188-2.40625 16-6.238281 4.257812 3.839843 9.832031 6.238281 16 6.238281 6.769531 0 12.863281-2.839844 17.230469-7.367188 4.976562 4.527344 11.53125 7.367188 18.769531 7.367188 15.441406 0 28-12.558594 28-28v-180h16c0 57.648438 38.328125 106.488281 90.832031 122.457031-20.839843 12.632813-34.832031 35.453125-34.832031 61.542969zm-264-256c0 59.0625-45.960938 107.601562-104 111.71875v-16.125c49.199219-4.089844 88-45.363281 88-95.59375zm136 168v16c0 4.40625-3.585938 8-8 8s-8-3.59375-8-8v-16h-16v16c0 4.40625-3.585938 8-8 8s-8-3.59375-8-8v-16h-16v12c0 6.617188-5.382812 12-12 12s-12-5.382812-12-12v-180h8.566406c11.34375 19.59375 32.570313 32 55.433594 32s44.089844-12.40625 55.433594-32h8.566406v180c0 6.617188-5.382812 12-12 12s-12-5.382812-12-12v-12zm88-168h16c0 50.230469 38.800781 91.503906 88 95.59375v16.125c-58.039062-4.117188-104-52.65625-104-111.71875zm104 79.59375c-40.367188-4.027344-72-38.1875-72-79.59375h72zm-448-127.59375h181.390625c3.089844 0 5.898437-1.777344 7.226563-4.566406 7.910156-16.664063 24.941406-27.433594 43.382812-27.433594s35.472656 10.769531 43.382812 27.433594c1.328126 2.789062 4.136719 4.566406 7.226563 4.566406h181.390625v32h-181.390625c-3.089844 0-5.898437 1.777344-7.226563 4.566406-7.910156 16.664063-24.941406 27.433594-43.382812 27.433594s-35.472656-10.769531-43.382812-27.433594c-1.328126-2.789062-4.136719-4.566406-7.226563-4.566406h-181.390625zm88 48c0 41.414062-31.632812 75.566406-72 79.59375v-79.59375zm-72 128.566406c27.105469 3.898438 48 27.265625 48 55.433594v72h-48zm448 175.433594h-464v-32h464zm-64-48v-72c0-28.167969 20.894531-51.535156 48-55.433594v127.433594zm0 0"/></svg>