<svg height="488pt" viewBox="-4 0 488 488" width="488pt" xmlns="http://www.w3.org/2000/svg"><path d="m32 488v-88h416v88" fill="#666"/><path d="m32 400h384v88h-384zm0 0" fill="#808080"/><path d="m0 352h480v48h-480zm0 0" fill="#999"/><path d="m0 352h448v48h-448zm0 0" fill="#b3b3b3"/><path d="m16 80h448v272h-448zm0 0" fill="#fff"/><g fill="#54bce8"><path d="m240 256v16c0 8.839844-7.160156 16-16 16s-16-7.160156-16-16v-16"/><path d="m272 256v12c0 11.046875 8.953125 20 20 20s20-8.953125 20-20v-188h-144v188c0 11.046875 8.953125 20 20 20s20-8.953125 20-20v-12"/><path d="m240 256v16c0 8.839844-7.160156 16-16 16s-16-7.160156-16-16v-16"/><path d="m272 256v16c0 8.839844-7.160156 16-16 16s-16-7.160156-16-16v-16"/><path d="m272 256v12c0 11.046875 8.953125 20 20 20s20-8.953125 20-20v-188h-144v188c0 11.046875 8.953125 20 20 20s20-8.953125 20-20v-12"/><path d="m272 256v16c0 8.839844-7.160156 16-16 16s-16-7.160156-16-16v-16"/></g><path d="m240 240v16c0 8.839844-7.160156 16-16 16s-16-7.160156-16-16v-16" fill="#7fcdee"/><path d="m272 240v16c0 8.839844-7.160156 16-16 16s-16-7.160156-16-16v-16" fill="#7fcdee"/><path d="m272 242.464844v11.078125c0 10.191406 8.953125 18.457031 20 18.457031s20-8.265625 20-18.464844v-173.535156h-144v173.535156c0 10.199219 8.953125 18.464844 20 18.464844s20-8.265625 20-18.464844v-11.078125" fill="#7fcdee"/><path d="m189.390625 80h-189.390625v-48h189.390625c8.984375-18.921875 28.273437-32 50.609375-32s41.625 13.078125 50.609375 32h189.390625v48h-189.390625c-8.984375 18.921875-28.273437 32-50.609375 32s-41.625-13.078125-50.609375-32zm0 0" fill="#b3b3b3"/><path d="m264 56c0 13.253906-10.746094 24-24 24s-24-10.746094-24-24 10.746094-24 24-24 24 10.746094 24 24zm0 0" fill="#911d22"/><path d="m248 56c0-12.441406-7.164062-22.527344-16-22.527344s-16 10.085938-16 22.527344 7.164062 22.527344 16 22.527344 16-10.085938 16-22.527344zm0 0" fill="#c1272d"/><path d="m80 352h-64v-144c35.34375 0 64 28.65625 64 64zm0 0" fill="#6d161a"/><path d="m400 352h64v-144c-35.34375 0-64 28.65625-64 64zm0 0" fill="#6d161a"/><path d="m16 208v-128h120v8c0 66.273438-53.726562 120-120 120zm0 0" fill="#911d22"/><path d="m16 176c48.601562 0 88-39.398438 88-88v-8h-88zm0 0" fill="#c1272d"/><path d="m464 208v-128h-120v8c0 66.273438 53.726562 120 120 120zm0 0" fill="#911d22"/><path d="m464 176c-48.601562 0-88-39.398438-88-88v-8h88zm0 0" fill="#c1272d"/></svg>