<svg height="458pt" viewBox="-4 0 458 458.47989" width="458pt" xmlns="http://www.w3.org/2000/svg"><path d="m445.640625 396.28125v47.597656h-130.179687v-54.378906c.023437-10.777344-3.179688-21.3125-9.199219-30.25 8.132812-6.597656 18.226562-10.3125 28.699219-10.558594 7.519531 10.160156 19.304687 16.285156 31.941406 16.597656 12.636718.308594 24.710937-5.230468 32.71875-15.007812.398437-.550781.851562-1.054688 1.351562-1.511719 25.101563 1.550781 44.664063 22.359375 44.667969 47.511719zm0 0" fill="#e48e66"/><path d="m409.410156 269.371094v21.148437c0 23.363281-18.941406 42.304688-42.304687 42.304688s-42.304688-18.941407-42.304688-42.304688v-21.148437c0-23.367188 18.941407-42.304688 42.304688-42.304688s42.304687 18.9375 42.304687 42.304688zm0 0" fill="#e48e66"/><path d="m315.460938 443.878906v14.601563h-179.449219v-68.980469c-.003907-29.503906 23.515625-53.625 53.007812-54.371094 8.589844 11.613282 22.054688 18.609375 36.492188 18.96875 14.4375.355469 28.230469-5.972656 37.378906-17.148437.457031-.621094.96875-1.199219 1.53125-1.730469 28.675781 1.777344 51.027344 25.550781 51.039063 54.28125zm0 0" fill="#f8ec7d"/><path d="m274.070312 244.511719v24.15625c0 26.695312-21.636718 48.332031-48.328124 48.332031-26.691407 0-48.332032-21.636719-48.332032-48.332031v-24.15625c0-26.695313 21.640625-48.332031 48.332032-48.332031 26.691406 0 48.328124 21.636718 48.328124 48.332031zm0 0" fill="#f8ec7d"/><path d="m143.132812 357.789062 1.898438 1.710938c-5.898438 8.890625-9.035156 19.328125-9.019531 30v54.378906h-130.371094v-47.597656c.007813-25.820312 20.589844-46.929688 46.398437-47.589844 7.519532 10.160156 19.304688 16.285156 31.941407 16.597656 12.640625.308594 24.710937-5.230468 32.71875-15.007812.402343-.542969.851562-1.050781 1.339843-1.511719 9.058594.539063 17.765626 3.671875 25.09375 9.019531zm0 0" fill="#e48e66"/><path d="m126.480469 269.371094v21.148437c0 23.363281-18.941407 42.304688-42.304688 42.304688s-42.304687-18.941407-42.304687-42.304688v-21.148437c0-23.367188 18.941406-42.304688 42.304687-42.304688s42.304688 18.9375 42.304688 42.304688zm0 0" fill="#e48e66"/><g fill="#6fe3ff"><path d="m299.441406 1.039062c-1.640625-1.117187-3.730468-1.347656-5.578125-.621093l-81.078125 31.960937c-2.292968.902344-3.800781 3.117188-3.800781 5.582032v60.039062c-4.082031-2.183594-8.648437-3.320312-13.28125-3.300781-13.9375 0-25.277344 9.886719-25.277344 22.039062 0 12.15625 11.339844 22.042969 25.277344 22.042969 13.941406 0 25.28125-9.886719 25.28125-22.042969v-49.425781l69.082031-27.238281v35.289062c-4.082031-2.179687-8.644531-3.3125-13.269531-3.292969-13.941406 0-25.28125 9.886719-25.28125 22.039063s11.339844 22.03125 25.28125 22.03125c13.9375 0 25.269531-9.882813 25.269531-22.03125v-88.109375c0-1.984375-.984375-3.84375-2.625-4.960938zm0 0"/><path d="m448.417969 60.011719c-1.640625-1.121094-3.730469-1.351563-5.578125-.625l-81.089844 31.972656c-2.292969.902344-3.800781 3.117187-3.800781 5.582031v60.027344c-4.082031-2.1875-8.648438-3.320312-13.277344-3.300781-13.9375 0-25.273437 9.886719-25.273437 22.039062 0 12.152344 11.335937 22.039063 25.273437 22.039063 13.933594 0 25.277344-9.886719 25.277344-22.039063v-49.421875l69.089843-27.238281v35.289063c-4.082031-2.183594-8.648437-3.316407-13.277343-3.300782-13.941407 0-25.28125 9.890625-25.28125 22.042969s11.339843 22.039063 25.28125 22.039063c13.9375 0 25.277343-9.886719 25.277343-22.039063v-88.109375c0-1.984375-.980468-3.839844-2.621093-4.957031zm0 0"/><path d="m129.257812 84.449219c-1.640624-1.117188-3.730468-1.351563-5.578124-.621094l-81.078126 31.972656c-2.292968.902344-3.800781 3.117188-3.800781 5.582031v60.035157c-4.085937-2.183594-8.648437-3.316407-13.28125-3.296875-13.9375 0-25.28125 9.882812-25.28125 22.03125 0 12.148437 11.34375 22.039062 25.28125 22.039062s25.28125-9.886718 25.28125-22.039062v-49.429688l69.078125-27.238281v35.289063c-4.082031-2.179688-8.640625-3.3125-13.269531-3.292969-13.9375 0-25.28125 9.886719-25.28125 22.039062 0 12.152344 11.34375 22.039063 25.28125 22.039063 13.941406 0 25.269531-9.886719 25.269531-22.039063v-88.109375c0-1.984375-.980468-3.84375-2.621094-4.960937zm0 0"/></g></svg>