<svg id="Capa_1" enable-background="new 0 0 508 508" height="512" viewBox="0 0 508 508" width="512" xmlns="http://www.w3.org/2000/svg"><g>
<path d="m253.481 10h85.818l-6.605 41.429c-2.271 14.246.666 28.834 8.274 41.091l15.816 25.48c0 62.613-40.357 376.017-43.344 369.759-46.04-96.435-90.562-192.301-106.591-277.469 1.688-24.576 14.33-97.487 14.33-97.487 3.179-21.625 8.808-42.818 16.779-63.169z" fill="#ffdcd5"/><path d="m206.849 210.29s17.935 88.07 17.935 172.39c0 33.235-3.772 65.585-10.907 96.652-2.508 10.918-12.208 18.668-23.41 18.668h-63.252c-9.946 0-18.818-6.151-22.418-15.422-8-20.604-14.458-41.977-19.233-63.977-5.732-26.416-6.997-53.606-4.179-80.489l7.399-66.112z" fill="#fff2a0"/><path d="m151.542 10-4.22 25.32c-3.284 19.705-10.972 38.414-22.492 54.733-12.897 18.27-20.969 39.502-23.468 61.725 0 0-5.044 43.872-6.578 58.512-1.616 15.416-6 46.209-6 61.709 0 22.161 4.561 42.89 12.787 61.842 15.318 35.291 64.565 38.304 84.152 5.192 13.698-23.159 22.058-50.182 21.561-79.034-.214-12.426-1.287-37.311-.436-49.709 1.688-24.576 14.33-97.487 14.33-97.487 3.179-21.625 8.808-42.818 16.779-63.169l15.524-39.634z" fill="#ffdcd5"/><path d="m362.444 296.27 24.42 160.31c3.32 21.79-13.55 41.42-35.59 41.42h-21.59c-6.94 0-13.26-3.98-16.24-10.24-19.48-40.8-38.68-81.5-55.57-121.32.856-38.935 7.519-76.44 19.159-111.68-21.95-5.06-43.63-11.38-64.589-18.79-2.13-8.66-4.01-17.22-5.6-25.68.32-4.65 1.03-11.04 1.98-18.33 26.99 10.55 54.809 18.91 82.938 25.08 16.501-36.411 38.531-69.783 65.022-99.04 34.52 0 70.66 28.27 71.11 69.39.08 7.04-2.71 13.81-7.72 18.76l-41.47 41.02c-12.96 12.82-19.01 31.08-16.26 49.1zm-66.27-200.92 43.82-4.46c-6.89-11.91-9.47-25.84-7.3-39.46l-99.09 10.07c-4.61 13.48-8.21 27.29-10.77 41.3-.62 3.32-1.17 6.66-1.66 10 0 0-8.31 47.92-12.35 79.16 22.95-37.33 52.47-69.99 87.35-96.61z" fill="#fff2a0"/><path d="m233.604 61.5c-4.61 13.48-8.21 27.28-10.77 41.3l-96.61-14.76c7.93-11.68 13.92-24.52 17.79-38.04zm-25.03 132.4c2.56-20.26 7.12-48.46 9.99-65.71-19.83 5.42-39.18 12.36-57.88 20.71-15.66-12.47-32.28-23.78-49.73-33.83-4.92 11.68-8.16 24.03-9.59 36.71 0 0-8.71 76.37-9.94 87.21 19.55-16.58 40.75-30.93 63.27-42.89 19.61 17.92 37.21 38.05 52.51 60.12 1.225-12.22.138-34.675-.36-45.93-.188-4.246.91-9.91 1.73-16.39z" fill="#fff2a0"/><path d="m411.844 129.88c-13.85-12.58-31.38-20.27-49.36-21.65l-13.02-20.98c-4.92-7.93-7.52-17.05-7.52-26.38 0-6.451 7.23-49.3 7.23-49.3 1.094-4.828-2.648-11.57-9.88-11.57h-187.752c-4.888 0-9.06 3.534-9.864 8.356l-4.22 25.32c-3.019 18.111-10.21 35.612-20.798 50.611-13.829 19.592-22.669 42.531-25.232 66.35-2.768 25.718-15.547 138.944-19.988 186.432-2.664 28.488-1.519 56.601 4.352 83.652 4.826 22.239 11.449 44.269 19.684 65.476 5.143 13.245 17.602 21.802 31.74 21.802h63.252c15.948 0 29.582-10.868 33.155-26.43 7.406-32.245 11.161-65.517 11.161-98.89 0-17.115-.739-34.427-1.919-51.16 2.153 5.56 38.887 95.286 71.55 160.549 2.37 4.736 10.112 15.93 25.27 15.93h21.61c17.426 0 28.46-9.38 32.65-13.62 4.18-4.22 13.33-15.122 13.33-32.31 0-2.33-.17-4.68-.53-7l-5.34-35.08c-2.004-13.162-21.774-10.151-19.77 3.01 0 0 5.64 34.484 5.64 39.07 0 13.995-11.264 25.93-26 25.93h-21.59c-3.07 0-5.9-1.79-7.22-4.55-19.783-41.397-38.386-80.995-54.536-118.887 2.405-87.292 35.41-170.978 93.178-236.394 13.282 1.06 26.949 7.059 37.278 16.501 12.56 11.49 19.31 26.3 19.51 42.83 0 4.629-1.73 8.55-4.75 11.54l-41.47 41.02c-14.47 13.521-19.696 33.166-19.88 47.63-.043 3.38.26 6.77.76 10.09l5.53 36.25c2 13.136 21.77 10.126 19.77-3.01 0 0-6.06-36.504-6.06-43.33 0-12.47 5.08-24.65 13.95-33.41l41.46-41.02c11.774-11.808 10.69-25.98 10.69-25.98-.001-29.891-18.151-50.238-26.051-57.398zm-67.489-12.943c-23.482 26.958-43.007 56.807-58.212 88.636-21.017-4.938-41.87-11.184-62.23-18.619 20.787-31.317 46.349-58.836 76.145-81.951l34.703-3.527zm-73.752 126.003c-16.752-4.135-33.418-9.05-49.724-14.643-1.46-6.256-4.353-17.233-3.61-22.48 19.836 7.235 40.125 13.382 60.582 18.338-2.576 6.199-4.993 12.463-7.248 18.785zm-90.871-91.213c8.679-3.453 17.491-6.603 26.387-9.427-1.501 9.291-3.129 19.664-4.606 29.688-7.025-7.024-14.287-13.782-21.781-20.261zm45.174-.227c3.174-19.927 6.416-38.762 6.534-39.522l33.346-3.389c-14.446 13.229-27.762 27.559-39.88 42.911zm35.398-131.5h67.271l-3.55 22.258-75.442 7.667zm61.67 42.57c.163 6.746 1.289 13.398 3.34 19.763l-89.906 9.138c1.627-6.965 3.54-13.863 5.698-20.682zm-161.961-42.57h78.811s-11.351 29.029-11.921 30.557l-70.559-9.056c.304-1.508 3.669-21.501 3.669-21.501zm-9.042 40.975 69.466 8.916c-2.113 7.122-3.956 14.325-5.532 21.584l-72.461-11.068c3.312-6.255 6.168-12.756 8.527-19.432zm-20.057 37.902 80.4 12.281c-.003.021-.006.042-.01.062-.149.858-.718 4.154-1.549 9.078-16.157 4.693-32.113 10.413-47.59 17.055-12.254-9.464-25.045-18.234-38.328-26.277 2.124-4.193 4.479-8.27 7.077-12.199zm-14.732 30.97c30.225 18.639 57.719 41.269 81.908 67.426-.562 4.764-1.593 22.275-1.557 28.341-24.232-29.343-52.685-54.515-84.925-75.11.929-7.014 2.46-13.928 4.574-20.657zm-7.151 42.899c9.875 6.705 19.353 13.881 28.42 21.513-11.459 6.674-22.57 13.981-33.253 21.87.198-1.714 3.286-29.779 4.833-43.383zm-8.126 71.381c16.294-13.496 33.832-25.508 52.277-35.79 16.243 15.479 36.603 39.05 44.104 51.835.435 25.219-6.54 50.728-20.169 73.771-7.256 12.268-20.152 19.065-34.49 18.163-14.305-.893-26.223-9.208-31.881-22.246-7.937-18.284-11.961-37.751-11.961-57.86-.001-6.891.948-17.249 2.12-27.873zm103.226 232.967c-1.475 6.421-7.093 10.906-13.663 10.906h-63.252c-5.823 0-10.963-3.549-13.096-9.042-7.857-20.236-14.177-41.257-18.782-62.478-5.419-24.971-6.939-55.997-3.666-80.359 8.856 21.266 28.073 34.691 49.71 35.946 22.759 1.32 42.578-10.408 52.95-27.942 7.057-11.931 12.537-24.467 16.37-37.311 2.366 23.91 4.083 50.13 4.083 75.866-.001 31.869-3.586 63.634-10.654 94.414zm22.673-225.764c12.392 3.952 24.944 7.521 37.547 10.666-6.01 20.03-10.431 40.573-13.187 61.44-9.588-24.79-17.839-48.816-24.36-72.106zm157.98 125.67c0 5.523-4.477 10-10 10s-10-4.477-10-10 4.477-10 10-10 10 4.477 10 10z"/></g>
</svg>