<svg height="511pt" viewBox="-28 0 511 511.99978" width="511pt" xmlns="http://www.w3.org/2000/svg"><path d="m51.5625 176.128906 33.613281 6.066406 17.125-123.46875c1.703125-12.285156-6.589843-23.726562-18.796875-25.929687l-2.328125-.421875c-1.960937-.355469-3.835937.949219-4.191406 2.910156zm0 0" fill="#e89c5d"/><path d="m58.207031 161.882812 34.777344 20.269532 69.789063-131.796875c6.257812-11.816407 2.078124-26.464844-9.476563-33.199219l-4.335937-2.527344c-2.027344-1.183594-4.632813-.496094-5.8125 1.53125zm0 0" fill="#f4b37d"/><path d="m294.898438 279.242188c-9.605469-2.226563-19.195313 3.757812-21.417969 13.363281-2.222657 9.609375 3.761719 19.195312 13.367187 21.421875 9.605469 2.222656 19.195313-3.761719 21.417969-13.367188 2.222656-9.605468-3.761719-19.195312-13.367187-21.417968zm0 0" fill="#e8626c"/><path d="m371.277344 285.015625c-9.605469-2.222656-19.195313 3.761719-21.417969 13.367187-2.226563 9.605469 3.757813 19.195313 13.363281 21.417969 9.605469 2.222657 19.195313-3.761719 21.421875-13.367187 2.222657-9.605469-3.761719-19.195313-13.367187-21.417969zm0 0" fill="#e8626c"/><path d="m284.804688 75.324219c0 11.511719-9.332032 20.839843-20.839844 20.839843-11.511719 0-20.839844-9.328124-20.839844-20.839843 0-11.507813 9.328125-20.835938 20.839844-20.835938 11.507812 0 20.839844 9.328125 20.839844 20.835938zm0 0" fill="#40c6c2"/><path d="m220.371094 211.722656c-13.300782 29.726563-20.800782 42.667969-29.878906 60.492188-2.902344 5.679687-8.074219 9.871094-14.238282 11.523437-27.804687 7.46875-44.714844 11.535157-70.011718 18.097657-1.921876.5-3.210938 2.332031-2.992188 4.308593 4.199219 37.472657 16.847656 69.695313 42.683594 109.476563l-76.964844 39.492187c-40.960938-65.691406-55.460938-120.992187-53.429688-193.691406 3.140626-44.132813 21.421876-93.859375 28.570313-111.863281 1.746094-4.429688 5.273437-7.914063 9.714844-9.640625l103.996093-40.5c9.007813-3.503907 19.230469.21875 23.871094 8.703125l30.648438 56.042968c2.175781 3.984376.324218 8.976563-3.917969 10.566407l-5.585937 2.101562c-10.984376 4.128907-23.359376 0-29.652344-9.902343l-12.253906-19.253907c-1.339844-2.121093-4.230469-2.597656-6.1875-1.007812-8.257813 6.675781-28.238282 23.046875-36.941407 31.742187-8.074219 8.082032-13.128906 42.914063.320313 56.269532 10.277344 10.203124 33.023437 14.625 41.976562 5.660156 8.964844-8.957032 17.871094-45.308594 60.273438-28.617188zm0 0" fill="#ffc999"/><path d="m197.914062 207.476562c-11.953124 24.328126-19.261718 36.34375-28 52.394532-3.054687 5.597656-8.335937 9.648437-14.546874 11.132812-27.996094 6.703125-45.011719 10.304688-70.476563 16.171875-1.9375.449219-3.277344 2.242188-3.113281 4.222657 3.175781 37.574218 14.933594 70.132812 39.671875 110.605468l-65.308594 31.285156c3.957031 7.171876 8.214844 14.429688 12.824219 21.828126l76.96875-39.492188c-25.835938-39.785156-38.484375-72.007812-42.6875-109.480469-.214844-1.976562 1.074218-3.804687 2.996094-4.304687 25.296874-6.566406 42.207031-10.632813 70.007812-18.097656 6.167969-1.65625 11.339844-5.847657 14.242188-11.527344 9.078124-17.824219 16.578124-30.765625 29.878906-60.488282-8.839844-3.484374-16.222656-4.652343-22.457032-4.25zm0 0" fill="#e89c5d"/><path d="m142.613281 218.800781 1.140625 2.144531c3.027344 5.695313 10.105469 7.84375 15.789063 4.796876l281.65625-151.101563c5.652343-3.03125 7.789062-10.066406 4.777343-15.730469-3.011718-5.664062-10.035156-7.824218-15.710937-4.835937l-282.796875 148.957031c-5.707031 3.003906-7.882812 10.074219-4.855469 15.769531zm0 0" fill="#4a4a68"/><path d="m174.289062 445.964844-88.113281 58.535156-4.738281-7.125c-24.988281-37.617188-43.269531-70.816406-55.816406-102.894531l95.882812-45.171875c9.292969 26.203125 24.574219 54.183594 48.046875 89.53125zm0 0" fill="#4a4a68"/><path d="m102.074219 368.644531c9.292969 26.203125 24.574219 54.179688 48.046875 89.527344l1.777344 2.667969 22.390624-14.875-4.738281-7.125c-23.472656-35.347656-38.753906-63.328125-48.046875-89.53125l-95.882812 45.171875c1.109375 2.835937 2.28125 5.683593 3.480468 8.542969zm0 0" fill="#333356"/><path d="m51.675781 455.03125c36.144531-17.332031 70.113281-37.191406 101.015625-60.601562 2.390625-1.8125 3.0625-5.128907 1.582032-7.738282-12.0625-21.253906-22.003907-43.203125-27.90625-61.714844-1.21875-3.8125-5.75-5.375-9.074219-3.148437-33.09375 22.175781-68.027344 38.789063-104.953125 49.382813-3.351563.960937-5.175782 4.578124-3.96875 7.851562 8.582031 23.242188 20.230468 47.386719 35.503906 73.546875 1.582031 2.707031 4.972656 3.777344 7.800781 2.421875zm0 0" fill="#ededed"/><path d="m154.273438 386.691406c-12.0625-21.253906-22.003907-43.203125-27.90625-61.714844-1.214844-3.8125-5.75-5.375-9.074219-3.148437-5.265625 3.53125-10.582031 6.902344-15.941407 10.144531 7.601563 21.441406 18.941407 45.777344 32.367188 69.4375 1.128906 1.988282 1.261719 4.300782.527344 6.328125 6.257812-4.308593 12.414062-8.738281 18.445312-13.308593 2.390625-1.8125 3.0625-5.128907 1.582032-7.738282zm0 0" fill="#c9c9c9"/><path d="m395.78125 230.578125-67.355469-5.089844c-5.949219-.441406-11.226562 3.433594-12.566406 9.238281l-9.652344 41.691407c-2.808593-2.128907-6.054687-3.664063-9.589843-4.480469-6.597657-1.527344-13.394532-.394531-19.140626 3.1875-5.746093 3.585938-9.75 9.195312-11.277343 15.792969-1.527344 6.597656-.394531 13.394531 3.191406 19.140625s9.191406 9.75 15.789063 11.277344c1.914062.441406 3.847656.664062 5.765624.664062 4.691407 0 9.296876-1.3125 13.375-3.855469 5.746094-3.585937 9.75-9.191406 11.277344-15.789062l14.285156-61.714844 61.25 4.628906-8.550781 36.9375c-2.761719-2.097656-5.992187-3.667969-9.585937-4.5-6.597656-1.527343-13.394532-.394531-19.140625 3.191407-5.746094 3.585937-9.75 9.191406-11.277344 15.789062s-.394531 13.398438 3.191406 19.140625c3.585938 5.746094 9.191407 9.75 15.789063 11.277344 1.917968.445312 3.851562.664062 5.769531.664062 4.6875 0 9.296875-1.308593 13.371094-3.855469 5.746093-3.582031 9.75-9.191406 11.277343-15.789062l14.566407-62.910156c.789062-3.40625.050781-6.976563-2.019531-9.792969-2.070313-2.8125-5.257813-4.582031-8.742188-4.84375zm-99.402344 74.839844c-2.347656 1.464843-5.121094 1.925781-7.816406 1.304687-2.691406-.625-4.984375-2.257812-6.445312-4.605468-1.464844-2.34375-1.929688-5.121094-1.304688-7.8125.625-2.695313 2.257812-4.984376 4.605469-6.449219 1.664062-1.039063 3.546875-1.574219 5.460937-1.574219.78125 0 1.570313.089844 2.351563.273438 2.695312.621093 4.984375 2.257812 6.449219 4.601562 1.464843 2.347656 1.925781 5.121094 1.304687 7.816406-.625 2.691406-2.257813 4.984375-4.605469 6.445313zm76.382813 5.773437c-2.347657 1.460938-5.125 1.925782-7.816407 1.304688-2.695312-.625-4.984374-2.261719-6.449218-4.605469-1.464844-2.347656-1.925782-5.121094-1.304688-7.816406.625-2.691407 2.261719-4.980469 4.605469-6.445313 1.667969-1.039062 3.546875-1.574218 5.460937-1.574218.785157 0 1.574219.089843 2.355469.269531 5.5625 1.289062 9.039063 6.859375 7.75 12.421875-.621093 2.691406-2.257812 4.980468-4.601562 6.445312zm0 0"/><path d="m263.964844 103.664062c15.625 0 28.339844-12.710937 28.339844-28.339843v-57.738281c0-1.355469.867187-2.011719 1.382812-2.28125.515625-.273438 1.550781-.609376 2.664062.164062l16.886719 11.691406c3.40625 2.359375 8.078125 1.507813 10.4375-1.898437 2.355469-3.40625 1.507813-8.078125-1.898437-10.4375l-16.886719-11.6875c-5.394531-3.734375-12.355469-4.164063-18.164063-1.121094-5.8125 3.046875-9.421874 9.011719-9.421874 15.570313v32.746093c-3.980469-2.132812-8.519532-3.34375-13.339844-3.34375-15.628906 0-28.339844 12.710938-28.339844 28.335938 0 15.628906 12.710938 28.339843 28.339844 28.339843zm0-41.675781c7.355468 0 13.339844 5.980469 13.339844 13.335938 0 7.359375-5.984376 13.34375-13.339844 13.34375-7.355469 0-13.339844-5.984375-13.339844-13.34375 0-7.355469 5.984375-13.335938 13.339844-13.335938zm0 0"/><path d="m452.601562 55.390625c-4.9375-9.285156-16.523437-12.851563-25.832031-7.949219l-209.398437 110.292969-29.101563-53.207031c-6.421875-11.753906-20.683593-16.960938-33.171875-12.105469l-7.691406 2.996094 22-41.550781c8.160156-15.433594 2.742188-34.402344-12.332031-43.1875l-4.335938-2.527344c-2.710937-1.585938-5.878906-2.015625-8.917969-1.210938-3.039062.800782-5.582031 2.738282-7.152343 5.441406l-26.777344 45.933594c1.453125-15.769531-9.304687-30.058594-25.023437-32.894531l-2.375-.4375c-2.914063-.519531-5.859376.125-8.289063 1.8125-2.445313 1.695313-4.078125 4.238281-4.597656 7.148437l-17.824219 98.714844-.671875.261719c-6.378906 2.476563-11.472656 7.539063-13.976563 13.875-2.945312 7.425781-7.425781 19.308594-12.03125 33.734375-1.261718 3.945312.914063 8.164062 4.859376 9.425781.761718.242188 1.527343.355469 2.285156.355469 3.175781 0 6.125-2.03125 7.144531-5.21875 4.476563-14.019531 8.828125-25.558594 11.691406-32.777344.976563-2.472656 2.964844-4.445312 5.464844-5.417968 14.683594-5.71875 93.59375-36.449219 103.984375-40.496094 5.484375-2.132813 11.753906.148437 14.574219 5.316406l29.015625 52.992188-11.632813 6.128906c-5.308593-.488282-10.078125-3.371094-12.984375-7.933594l-12.238281-19.242188c-1.78125-2.820312-4.691406-4.75-7.984375-5.289062-3.289062-.542969-6.671875.355469-9.261719 2.457031-8.273437 6.699219-28.492187 23.253907-37.53125 32.28125-7.035156 7.042969-10.214843 23.195313-10.191406 35.222657.023437 13.691406 3.765625 24.9375 10.539063 31.671874 7.777343 7.71875 20.8125 12.675782 32.644531 12.675782 7.773437-.003906 15.027343-2.144532 19.921875-7.046875 2.445312-2.449219 4.480468-5.75 6.839844-9.574219 2.992187-4.863281 6.386718-10.335938 10.957031-14.5l11.21875-6.019531c4.546875-1.019531 9.789062-.796875 15.671875.699219-8.085938 17.644531-13.96875 28.898437-19.679688 39.820312-2.132812 4.078125-4.339844 8.296875-6.601562 12.738281-1.933594 3.789063-5.398438 6.59375-9.503906 7.699219-17.570313 4.714844-30.671876 8.042969-44.542969 11.570312-7.972657 2.023438-16.121094 4.097657-25.398438 6.503907-5.511719 1.425781-9.199219 6.757812-8.570312 12.40625.695312 6.191406 1.597656 12.101562 2.726562 17.929687-21.289062 12.964844-43.285156 23.585938-65.746093 31.753906-7.617188-28.867187-10.734376-59.253906-9.746094-94.867187 1.03125-14.269531 3.785156-30.441406 8.191406-48.078125 1.003906-4.015625-1.4375-8.089844-5.457031-9.09375-4.019531-1-8.089844 1.4375-9.09375 5.457031-4.632813 18.542969-7.53125 35.636719-8.613281 50.804688-.007813.109375-.015626.21875-.019532.324219-1.054687 37.574218 2.296875 69.664062 10.496094 100.289062-2.75.863281-5.5 1.707031-8.261719 2.5-3.59375 1.027344-6.625 3.535156-8.316406 6.875s-1.9179688 7.269531-.621094 10.785156c8.761719 23.722656 20.554688 48.167969 36.0625 74.726563 2.496094 4.273437 7.066407 6.714843 11.757813 6.714843.628906 0 1.257812-.0625 1.882812-.152343 7.121094 12.195312 15.058594 24.867187 24.152344 38.570312l4.742188 7.132813c1.445312 2.171875 3.824218 3.347656 6.253906 3.347656 1.425781 0 2.867187-.40625 4.144531-1.253906 3.449219-2.296875 4.386719-6.949219 2.09375-10.398438l-4.738281-7.125c-8.554688-12.890625-16.046875-24.832031-22.792969-36.3125 28.839844-14.359375 54.601563-29.570312 78.109375-46.128906 5.871094 9.929688 12.546875 20.527344 20.300781 32.210938l4.742188 7.128906c1.441406 2.171875 3.824219 3.347656 6.253906 3.347656 1.425781 0 2.867187-.40625 4.144531-1.253906 3.449219-2.292969 4.386719-6.949219 2.09375-10.398438l-4.738281-7.125c-7.925781-11.941406-14.699219-22.714844-20.605469-32.765625.675782-.507812 1.355469-1.007812 2.027344-1.515625 5.367188-4.066406 6.90625-11.554687 3.578125-17.421875-11.859375-20.894531-21.550781-42.304687-27.285156-60.289062-1.300781-4.078125-4.363281-7.226563-8.402344-8.636719-4.050781-1.414062-8.421875-.855469-11.988281 1.535156-.304688.203125-.609375.398438-.914063.601563-.421875-2.585938-.808593-5.195313-1.144531-7.863281 8.054688-2.082032 15.296875-3.921876 22.394531-5.726563 13.921875-3.539063 27.070313-6.878906 44.742188-11.621094 8.195312-2.207031 15.113281-7.804687 18.976562-15.371093 2.226563-4.378907 4.414063-8.558594 6.527344-12.601563 6.59375-12.609375 13.414063-25.652344 23.515625-48.230469.835938-1.867187.871094-4 .097656-5.894531-.773437-1.898437-2.289062-3.394531-4.195312-4.144531-1.746094-.6875-3.460938-1.292969-5.15625-1.835938l226.78125-121.660156c9.265625-4.972656 12.789062-16.570312 7.855468-25.859375zm-304.609374-32.644531 1.53125.894531c8.101562 4.722656 11.011718 14.917969 6.628906 23.210937l-30.125 56.894532-32.671875 12.722656 10.355469-17.761719c.023437-.039062.046874-.078125.066406-.117187zm-64.328126 17.777344c7.445313 2.09375 12.292969 9.355468 11.203126 17.179687l-4.792969 34.613281-19.179688 32.902344-2.714843 1.058594zm63.441407 348.726562c-2.019531 1.523438-4.0625 3.027344-6.117188 4.527344-.007812.003906-.019531.011718-.027343.019531-26.4375 19.269531-55.863282 36.691406-89.582032 53.042969-.101562.042968-.199218.097656-.296875.144531-.46875.226563-.929687.457031-1.402343.683594-14.402344-24.785157-25.445313-47.613281-33.714844-69.699219 4.632812-1.351562 9.246094-2.808594 13.84375-4.355469h.003906c.019531-.007812.042969-.015625.0625-.023437 27.664062-9.328125 54.679688-22.214844 80.625-38.445313.285156-.15625.5625-.324219.824219-.515625 2.847656-1.792968 5.6875-3.605468 8.511719-5.480468 5.988281 18.203124 15.613281 39.414062 27.269531 60.101562zm-23.699219-159.882812c-3.867188-3.84375-6.09375-11.519532-6.109375-21.058594-.023437-12.070313 3.421875-22.203125 5.800781-24.589844 7.71875-7.707031 25.117188-22.070312 33.492188-28.894531l10.261718 16.136719c2.265626 3.558593 5.140626 6.570312 8.441407 8.9375l-31.320313 16.496093c-4.535156 2.390625-7.867187 6.40625-9.375 11.308594-1.507812 4.898437-1.011718 10.089844 1.394532 14.617187l1.140624 2.144532c2.40625 4.53125 6.433594 7.84375 11.339844 9.335937 1.84375.558594 3.722656.835938 5.59375.835938.375 0 .75-.015625 1.121094-.035157-.136719.15625-.269531.308594-.398438.433594-5.371093 5.382813-23.558593 2.09375-31.382812-5.667968zm314.246094-161.335938-249.21875 133.699219c-.023438.015625-.046875.027343-.070313.039062l-32.367187 17.363281c-.976563.523438-2.101563.636719-3.164063.3125-1.0625-.320312-1.933593-1.039062-2.453125-2.019531l-1.140625-2.144531s0 0-.003906 0c-.519531-.980469-.625-2.105469-.300781-3.167969.328125-1.0625 1.046875-1.929687 2.03125-2.449219l46.769531-24.632812c.027344-.015625.050781-.027344.074219-.039062l18.980468-9.996094c.019532-.011719.039063-.019532.058594-.03125l216.914063-114.253906c.613281-.320313 1.273437-.476563 1.921875-.476563 1.488281 0 2.929687.800781 3.671875 2.199219 1.066406 2.011718.304687 4.523437-1.703125 5.597656zm0 0"/><path d="m108.210938 372.851562c1.3125 2.628907 3.960937 4.148438 6.714843 4.148438 1.125 0 2.269531-.257812 3.347657-.796875l4-2c3.703124-1.851563 5.207031-6.355469 3.355468-10.0625-1.855468-3.703125-6.355468-5.203125-10.066406-3.351563l-4 2c-3.703125 1.851563-5.207031 6.355469-3.351562 10.0625zm0 0"/></svg>