<svg height="464pt" viewBox="-6 0 464 464.47889" fill="white" width="464pt" xmlns="http://www.w3.org/2000/svg"><path d="m226.339844 190.179688c-29.992188.03125-54.296875 24.335937-54.332032 54.328124v24.164063c-.082031 19.46875 10.253907 37.488281 27.097657 47.246094 16.847656 9.757812 37.621093 9.757812 54.46875 0 16.84375-9.757813 27.179687-27.777344 27.097656-47.246094v-24.164063c-.035156-29.992187-24.339844-54.296874-54.332031-54.328124zm42.332031 78.5c.074219 15.171874-7.980469 29.222656-21.105469 36.828124-13.128906 7.609376-29.324218 7.609376-42.453125 0-13.125-7.605468-21.175781-21.65625-21.105469-36.828124v-24.171876c.113282-23.296874 19.035157-42.125 42.332032-42.125s42.21875 18.828126 42.332031 42.125zm0 0"/><path d="m367.703125 221.0625c-26.664063.03125-48.269531 21.640625-48.300781 48.304688v21.152343c0 26.675781 21.625 48.304688 48.304687 48.304688 26.675781 0 48.304688-21.628907 48.304688-48.304688v-21.152343c-.03125-26.667969-21.640625-48.277344-48.308594-48.304688zm36.300781 69.457031c0 20.050781-16.253906 36.304688-36.304687 36.304688s-36.304688-16.253907-36.304688-36.304688v-21.152343c0-20.050782 16.253907-36.304688 36.304688-36.304688s36.304687 16.253906 36.304687 36.304688zm0 0"/><path d="m401.929688 342.777344c-3.148438-.199219-4.773438 1.785156-6.34375 3.699218-6.835938 8.351563-17.140626 13.082032-27.929688 12.820313-10.789062-.265625-20.851562-5.492187-27.269531-14.171875-1.171875-1.5625-3.023438-2.46875-4.976563-2.429688-9.679687.214844-19.117187 3.074219-27.285156 8.273438-10.613281-12.847656-26.074219-20.71875-42.707031-21.738281-3.179688-.222657-4.753907 1.699219-6.570313 3.914062-7.972656 9.746094-20 15.265625-32.589844 14.957031-12.585937-.308593-24.328124-6.410156-31.816406-16.535156-1.171875-1.5625-3.023437-2.46875-4.976562-2.429687-15.734375.363281-30.695313 6.886719-41.667969 18.171875-1.171875 1.203125-2.277344 2.453125-3.339844 3.734375-7.644531-4.875-16.40625-7.71875-25.457031-8.265625-3.148438-.1875-4.699219 1.699218-6.34375 3.699218-6.832031 8.351563-17.140625 13.082032-27.929688 12.820313-10.789062-.265625-20.851562-5.492187-27.269531-14.171875-1.167969-1.566406-3.019531-2.472656-4.976562-2.429688-29.0625.742188-52.234375 24.511719-52.242188 53.582032v47.601562c0 3.3125 2.6875 6 6 6h124.375v8.601563c0 3.3125 2.683594 6 6 6h179.445313c3.316406 0 6-2.6875 6-6v-8.601563h124.179687c3.316407 0 6-2.6875 6-6v-47.601562c-.027343-28.3125-22.050781-51.734375-50.308593-53.5zm-271.316407 46.722656v48.378906h-118.375v-41.601562c.136719-21.386719 16.363281-39.242188 37.640625-41.410156 8.902344 10.402343 21.902344 16.40625 35.597656 16.4375 13.691407.03125 26.71875-5.910157 35.667969-16.273438 5.898438.773438 11.558594 2.808594 16.601563 5.96875-4.699219 8.761719-7.152344 18.554688-7.132813 28.5zm179.445313 62.980469h-167.445313v-62.980469c.007813-25.105469 19.210938-46.03125 44.21875-48.199219 10.011719 11.898438 24.757813 18.785157 40.308594 18.816407 15.550781.035156 30.328125-6.785157 40.390625-18.640626 24.265625 2.980469 42.503906 23.582032 42.527344 48.027344zm130.179687-14.605469h-118.179687v-48.375c.007812-9.972656-2.472656-19.785156-7.207032-28.5625 5.425782-3.398438 11.574219-5.476562 17.953126-6.074219 8.902343 10.40625 21.898437 16.414063 35.59375 16.445313 13.695312.03125 26.722656-5.914063 35.671874-16.277344 20.6875 2.746094 36.148438 20.378906 36.167969 41.246094zm0 0"/><path d="m84.777344 338.824219c26.660156-.035157 48.265625-21.640625 48.300781-48.300781v-21.15625c0-26.679688-21.628906-48.304688-48.304687-48.304688-26.679688 0-48.304688 21.625-48.304688 48.304688v21.152343c.03125 26.664063 21.640625 48.273438 48.308594 48.304688zm-36.300782-69.457031c0-20.050782 16.253907-36.304688 36.304688-36.304688s36.304688 16.253906 36.304688 36.304688v21.152343c0 20.050781-16.253907 36.304688-36.304688 36.304688s-36.304688-16.253907-36.304688-36.304688zm0 0"/><path d="m302.664062 94.109375v-88.109375c0-1.984375-.980468-3.84375-2.625-4.960938-1.640624-1.117187-3.726562-1.347656-5.574218-.621093l-81.082032 31.964843c-2.292968.902344-3.800781 3.117188-3.800781 5.582032v60.035156c-4.082031-2.183594-8.648437-3.320312-13.277343-3.300781-13.941407 0-25.28125 9.886719-25.28125 22.035156 0 12.152344 11.339843 22.039063 25.28125 22.039063 13.9375 0 25.277343-9.886719 25.277343-22.039063v-42.972656l69.082031-27.234375v28.839844c-4.085937-2.183594-8.648437-3.316407-13.28125-3.300782-13.9375 0-25.277343 9.886719-25.277343 22.039063 0 12.148437 11.339843 22.035156 25.277343 22.035156 13.941407 0 25.28125-9.882813 25.28125-22.03125zm-106.359374 32.664063c-7.203126 0-13.28125-4.59375-13.28125-10.035157 0-5.441406 6.082031-10.035156 13.28125-10.035156 7.195312 0 13.277343 4.601563 13.277343 10.035156 0 5.4375-6.082031 10.035157-13.277343 10.035157zm81.078124-22.628907c-7.199218 0-13.277343-4.601562-13.277343-10.035156 0-5.4375 6.082031-10.039063 13.277343-10.039063 7.199219 0 13.28125 4.601563 13.28125 10.039063 0 5.433594-6.082031 10.035156-13.28125 10.035156zm13.28125-70.515625-69.082031 27.230469v-18.8125l69.082031-27.234375zm0 0"/><path d="m358.554688 96.9375v60.03125c-4.085938-2.183594-8.648438-3.316406-13.28125-3.300781-13.9375 0-25.277344 9.886719-25.277344 22.039062 0 12.148438 11.339844 22.035157 25.277344 22.035157 13.941406 0 25.28125-9.886719 25.28125-22.035157v-42.976562l69.085937-27.230469v28.84375c-4.085937-2.1875-8.648437-3.320312-13.28125-3.300781-13.9375 0-25.277344 9.886719-25.277344 22.035156s11.339844 22.035156 25.277344 22.035156 25.28125-9.886719 25.28125-22.035156v-88.105469c0-1.988281-.984375-3.84375-2.625-4.960937-1.640625-1.117188-3.730469-1.351563-5.578125-.621094l-81.078125 31.964844c-2.296875.902343-3.804687 3.113281-3.804687 5.582031zm-13.28125 88.808594c-7.199219 0-13.277344-4.601563-13.277344-10.035156 0-5.4375 6.082031-10.035157 13.277344-10.035157 7.199218 0 13.28125 4.597657 13.28125 10.035157 0 5.433593-6.082032 10.035156-13.28125 10.035156zm81.082031-22.632813c-7.199219 0-13.277344-4.59375-13.277344-10.035156s6.078125-10.035156 13.277344-10.035156 13.28125 4.601562 13.28125 10.035156c0 5.4375-6.082031 10.035156-13.28125 10.035156zm-55.800781-62.097656 69.085937-27.230469v18.816406l-69.082031 27.230469zm0 0"/><path d="m107.203125 155.484375c-13.9375 0-25.277344 9.886719-25.277344 22.035156 0 12.152344 11.339844 22.039063 25.277344 22.039063 13.941406 0 25.28125-9.886719 25.28125-22.039063v-88.109375c0-1.984375-.980469-3.839844-2.625-4.957031-1.640625-1.117187-3.726563-1.351563-5.574219-.625l-81.082031 31.964844c-2.292969.90625-3.800781 3.117187-3.800781 5.582031v60.035156c-4.085938-2.183594-8.648438-3.316406-13.277344-3.300781-13.941406 0-25.28125 9.886719-25.28125 22.039063 0 12.148437 11.339844 22.035156 25.28125 22.035156 13.9375 0 25.277344-9.886719 25.277344-22.035156v-42.976563l69.082031-27.234375v28.84375c-4.085937-2.183594-8.648437-3.316406-13.28125-3.296875zm0 32.074219c-7.199219 0-13.277344-4.601563-13.277344-10.039063 0-5.433593 6.082031-10.035156 13.277344-10.035156 7.199219 0 13.28125 4.597656 13.28125 10.035156s-6.082031 10.039063-13.28125 10.039063zm-81.078125 22.628906c-7.203125 0-13.28125-4.601562-13.28125-10.035156 0-5.4375 6.082031-10.039063 13.28125-10.039063 7.195312 0 13.277344 4.601563 13.277344 10.039063 0 5.433594-6.082032 10.035156-13.277344 10.035156zm25.277344-65.914062v-18.8125l69.082031-27.234376v18.8125zm0 0"/></svg>