<svg height="464pt" viewBox="-6 0 464 464.47989" width="464pt" xmlns="http://www.w3.org/2000/svg"><path d="m446.238281 396.28125v47.597656h-130.179687v-54.378906c.023437-10.777344-3.179688-21.3125-9.199219-30.25 8.136719-6.597656 18.230469-10.3125 28.699219-10.558594 7.519531 10.160156 19.304687 16.285156 31.941406 16.597656 12.636719.308594 24.710938-5.230468 32.71875-15.007812.398438-.550781.851562-1.054688 1.351562-1.511719 25.101563 1.550781 44.667969 22.359375 44.667969 47.511719zm0 0" fill="#e48e66"/><path d="m445.640625 64.96875v31.710938l-81.089844 31.96875v-31.707032zm0 0" fill="#6fe3ff"/><path d="m445.640625 153.078125c0-8.855469-8.632813-16.039063-19.28125-16.039063s-19.28125 7.183594-19.28125 16.039063c0 8.859375 8.632813 16.042969 19.28125 16.042969s19.28125-7.183594 19.28125-16.042969zm0 0" fill="#6fe3ff"/><path d="m410.011719 269.371094v21.148437c0 23.363281-18.941407 42.304688-42.308594 42.304688-23.363281 0-42.304687-18.941407-42.304687-42.304688v-21.148437c0-23.367188 18.941406-42.304688 42.304687-42.304688 23.367187 0 42.308594 18.9375 42.308594 42.304688zm0 0" fill="#e48e66"/><path d="m345.269531 159.667969c10.652344 0 19.28125 7.183593 19.28125 16.042969 0 8.859374-8.628906 16.039062-19.28125 16.039062-10.648437 0-19.269531-7.179688-19.269531-16.039062 0-8.859376 8.628906-16.042969 19.269531-16.042969zm0 0" fill="#6fe3ff"/><path d="m316.058594 443.878906v14.601563h-179.449219v-68.980469c-.003906-29.503906 23.519531-53.625 53.011719-54.371094 8.585937 11.613282 22.050781 18.609375 36.488281 18.96875 14.4375.355469 28.230469-5.972656 37.378906-17.148437.457031-.621094.96875-1.199219 1.53125-1.730469 28.675781 1.777344 51.027344 25.550781 51.039063 54.28125zm0 0" fill="#f8ec7d"/><path d="m296.660156 6v31.710938l-81.082031 31.96875v-31.71875zm0 0" fill="#6fe3ff"/><path d="m277.390625 78.070312c10.640625 0 19.269531 7.179688 19.269531 16.039063s-8.628906 16.03125-19.269531 16.03125-19.28125-7.171875-19.28125-16.03125 8.628906-16.039063 19.28125-16.039063zm0 0" fill="#6fe3ff"/><path d="m274.671875 244.511719v24.15625c0 26.695312-21.640625 48.332031-48.332031 48.332031s-48.328125-21.636719-48.328125-48.332031v-24.15625c0-26.695313 21.636719-48.332031 48.328125-48.332031s48.332031 21.636718 48.332031 48.332031zm0 0" fill="#f8ec7d"/><path d="m215.578125 116.738281c0-8.855469-8.628906-16.039062-19.277344-16.039062-10.648437 0-19.28125 7.183593-19.28125 16.039062 0 8.859375 8.632813 16.042969 19.28125 16.042969 10.648438 0 19.277344-7.183594 19.277344-16.042969zm0 0" fill="#6fe3ff"/><path d="m143.730469 357.789062 1.898437 1.710938c-5.894531 8.890625-9.035156 19.328125-9.019531 30v54.378906h-130.371094v-47.597656c.011719-25.820312 20.589844-46.929688 46.402344-47.589844 7.515625 10.160156 19.304687 16.285156 31.941406 16.597656 12.636719.308594 24.710938-5.230468 32.71875-15.007812.398438-.542969.847657-1.050781 1.339844-1.511719 9.054687.539063 17.761719 3.671875 25.089844 9.019531zm0 0" fill="#e48e66"/><path d="m127.078125 269.371094v21.148437c0 23.363281-18.9375 42.304688-42.304687 42.304688-23.363282 0-42.304688-18.941407-42.304688-42.304688v-21.148437c0-23.367188 18.941406-42.304688 42.304688-42.304688 23.367187 0 42.304687 18.9375 42.304687 42.304688zm0 0" fill="#e48e66"/><path d="m126.480469 89.410156v31.710938l-81.082031 31.96875v-31.710938zm0 0" fill="#6fe3ff"/><path d="m107.210938 161.480469c10.640624 0 19.269531 7.179687 19.269531 16.039062s-8.628907 16.039063-19.269531 16.039063c-10.640626 0-19.28125-7.179688-19.28125-16.039063s8.628906-16.039062 19.28125-16.039062zm0 0" fill="#6fe3ff"/><path d="m26.121094 184.121094c10.648437 0 19.277344 7.179687 19.277344 16.027344 0 8.851562-8.628907 16.042968-19.277344 16.042968-10.652344 0-19.28125-7.179687-19.28125-16.042968 0-8.859376 8.640625-16.027344 19.28125-16.027344zm0 0" fill="#6fe3ff"/><g fill="#63316d"><path d="m226.339844 190.179688c-29.992188.035156-54.296875 24.339843-54.328125 54.332031v24.15625c0 30.007812 24.324219 54.332031 54.328125 54.332031s54.332031-24.324219 54.332031-54.332031v-24.15625c-.011719-30.003907-24.328125-54.324219-54.332031-54.332031zm42.332031 78.488281c0 23.378906-18.953125 42.332031-42.332031 42.332031s-42.328125-18.953125-42.328125-42.332031v-24.15625c0-23.378907 18.949219-42.332031 42.328125-42.332031s42.332031 18.953124 42.332031 42.332031zm0 0"/><path d="m367.699219 221.058594c-26.664063.035156-48.273438 21.644531-48.300781 48.3125v21.148437c0 26.679688 21.628906 48.304688 48.304687 48.304688 26.679687 0 48.308594-21.625 48.308594-48.304688v-21.148437c.003906-26.683594-21.628907-48.316406-48.3125-48.3125zm36.3125 69.460937c0 20.050781-16.257813 36.304688-36.308594 36.304688s-36.304687-16.253907-36.304687-36.304688v-21.148437c0-20.050782 16.253906-36.304688 36.304687-36.304688s36.308594 16.253906 36.308594 36.304688zm0 0"/><path d="m401.933594 342.78125c-.121094-.007812-.242188-.011719-.363282-.011719-2.9375 0-4.417968 1.800781-5.992187 3.707031-6.832031 8.347657-17.140625 13.078126-27.925781 12.8125-10.789063-.265624-20.847656-5.492187-27.265625-14.164062-1.167969-1.570312-3.023438-2.476562-4.976563-2.433594-9.679687.214844-19.117187 3.074219-27.285156 8.277344-10.660156-12.804688-26.113281-20.664062-42.742188-21.738281-.121093-.007813-.242187-.011719-.363281-.011719-2.957031 0-4.378906 1.734375-6.167969 3.925781-7.976562 9.742188-20 15.257813-32.585937 14.949219s-24.328125-6.40625-31.816406-16.527344c-1.164063-1.574218-3.019531-2.480468-4.972657-2.433594-17.464843.460938-33.871093 8.449219-45 21.910157-7.652343-4.875-16.417968-7.71875-25.472656-8.261719-.121094-.007812-.238281-.011719-.359375-.011719-2.929687 0-4.339843 1.714844-5.976562 3.699219-6.835938 8.351562-17.140625 13.082031-27.929688 12.820312-10.789062-.265624-20.851562-5.492187-27.269531-14.167968-1.167969-1.570313-3.023438-2.480469-4.976562-2.433594-29.066407.742188-52.246094 24.515625-52.253907 53.59375v47.597656c0 3.316406 2.6875 6 6 6h124.371094v8.601563c0 3.3125 2.6875 6 6 6h179.449219c3.316406 0 6-2.6875 6-6v-8.601563h124.179687c3.316407 0 6-2.683594 6-6v-47.597656c-.023437-28.316406-22.046875-51.738281-50.304687-53.5zm-389.695313 95.097656v-41.597656c.140625-21.390625 16.367188-39.242188 37.644531-41.417969 8.902344 10.402344 21.902344 16.40625 35.59375 16.4375 13.691407.03125 26.714844-5.910156 35.667969-16.269531 5.902344.769531 11.570313 2.804688 16.613281 5.96875-4.703124 8.761719-7.160156 18.554688-7.148437 28.5v48.378906zm297.820313 14.601563h-167.449219v-62.980469c-.003906-25.113281 19.210937-46.054688 44.230469-48.210938 10.011718 11.902344 24.757812 18.789063 40.308594 18.824219 15.550781.035157 30.328124-6.785156 40.390624-18.640625 13.964844 1.742188 26.488282 9.445313 34.34375 21.117188l.011719.011718c5.351563 7.949219 8.199219 17.320313 8.175781 26.902344zm130.179687-14.601563h-118.179687v-48.378906c.015625-9.976562-2.457032-19.796875-7.191406-28.574219 5.421874-3.394531 11.5625-5.472656 17.933593-6.066406 8.902344 10.40625 21.898438 16.40625 35.59375 16.441406 13.691407.03125 26.71875-5.910156 35.667969-16.269531 20.695312 2.738281 36.160156 20.375 36.175781 41.25zm0 0"/><path d="m84.78125 338.820312c26.660156-.03125 48.269531-21.636718 48.296875-48.300781v-21.148437c0-26.679688-21.625-48.304688-48.304687-48.304688-26.675782 0-48.304688 21.625-48.304688 48.304688v21.148437c.035156 26.664063 21.644531 48.273438 48.3125 48.300781zm-36.3125-69.449218c0-20.050782 16.253906-36.304688 36.304688-36.304688 20.050781 0 36.304687 16.253906 36.304687 36.304688v21.148437c0 20.050781-16.253906 36.304688-36.304687 36.304688-20.050782 0-36.304688-16.253907-36.304688-36.304688zm0 0"/><path d="m302.660156 94.109375v-88.109375c0-1.984375-.984375-3.84375-2.625-4.960938-1.640625-1.117187-3.726562-1.347656-5.574218-.621093l-81.082032 31.960937c-2.292968.902344-3.800781 3.117188-3.800781 5.582032v60.039062c-4.082031-2.183594-8.644531-3.320312-13.277344-3.300781-13.941406 0-25.28125 9.886719-25.28125 22.039062 0 12.15625 11.339844 22.042969 25.28125 22.042969 13.9375 0 25.277344-9.886719 25.277344-22.042969v-42.972656l69.082031-27.238281v28.835937c-4.082031-2.179687-8.640625-3.3125-13.269531-3.292969-13.941406 0-25.28125 9.886719-25.28125 22.039063s11.339844 22.03125 25.28125 22.03125c13.9375 0 25.269531-9.882813 25.269531-22.03125zm-106.359375 32.671875c-7.199219 0-13.28125-4.601562-13.28125-10.042969 0-5.4375 6.082031-10.039062 13.28125-10.039062 7.195313 0 13.277344 4.601562 13.277344 10.039062 0 5.441407-6.078125 10.042969-13.277344 10.042969zm25.277344-65.917969v-18.820312l69.082031-27.230469v18.8125zm55.8125 43.277344c-7.199219 0-13.28125-4.59375-13.28125-10.03125s6.082031-10.039063 13.28125-10.039063 13.269531 4.597657 13.269531 10.039063-6.078125 10.03125-13.269531 10.03125zm0 0"/><path d="m358.550781 96.941406v60.027344c-4.085937-2.1875-8.648437-3.320312-13.28125-3.300781-13.933593 0-25.269531 9.886719-25.269531 22.039062 0 12.152344 11.335938 22.039063 25.269531 22.039063 13.933594 0 25.28125-9.886719 25.28125-22.039063v-42.972656l69.089844-27.234375v28.84375c-4.085937-2.1875-8.648437-3.320312-13.28125-3.300781-13.9375 0-25.28125 9.886719-25.28125 22.039062 0 12.152344 11.34375 22.039063 25.28125 22.039063 13.941406 0 25.28125-9.886719 25.28125-22.039063v-88.113281c0-1.984375-.984375-3.839844-2.625-4.957031-1.640625-1.117188-3.726563-1.351563-5.574219-.625l-81.089844 31.972656c-2.292968.902344-3.800781 3.117187-3.800781 5.582031zm-13.28125 88.808594c-7.191406 0-13.269531-4.601562-13.269531-10.039062 0-5.441407 6.078125-10.042969 13.269531-10.042969 7.195313 0 13.28125 4.601562 13.28125 10.042969 0 5.4375-6.082031 10.039062-13.28125 10.039062zm81.089844-22.628906c-7.199219 0-13.28125-4.601563-13.28125-10.042969 0-5.4375 6.082031-10.039063 13.28125-10.039063s13.28125 4.601563 13.28125 10.039063c0 5.441406-6.082031 10.042969-13.28125 10.042969zm13.28125-89.335938v18.816406l-69.089844 27.238282v-18.816406zm0 0"/><path d="m107.210938 155.480469c-13.941407 0-25.28125 9.886719-25.28125 22.039062 0 12.152344 11.339843 22.039063 25.28125 22.039063 13.9375 0 25.269531-9.886719 25.269531-22.039063v-88.109375c0-1.984375-.984375-3.84375-2.625-4.960937-1.640625-1.117188-3.726563-1.347657-5.574219-.621094l-81.082031 31.972656c-2.292969.902344-3.800781 3.117188-3.800781 5.582031v60.035157c-4.085938-2.183594-8.648438-3.316407-13.28125-3.296875-13.9375 0-25.277344 9.882812-25.277344 22.03125 0 12.148437 11.339844 22.039062 25.277344 22.039062 13.941406 0 25.28125-9.886718 25.28125-22.039062v-42.976563l69.082031-27.238281v28.835938c-4.082031-2.179688-8.644531-3.3125-13.269531-3.292969zm0 32.078125c-7.199219 0-13.28125-4.597656-13.28125-10.039063 0-5.441406 6.082031-10.039062 13.28125-10.039062 7.199218 0 13.269531 4.597656 13.269531 10.039062 0 5.441407-6.078125 10.039063-13.269531 10.039063zm-81.089844 22.632812c-7.199219 0-13.28125-4.601562-13.28125-10.042968 0-5.4375 6.082031-10.027344 13.28125-10.027344 7.199218 0 13.277344 4.59375 13.277344 10.027344 0 5.4375-6.082032 10.042968-13.277344 10.042968zm25.277344-65.917968v-18.808594l69.082031-27.238282v18.808594zm0 0"/></g></svg>